<svg width="30" height="30" viewBox="0 0 30 30" fill="none" xmlns="http://www.w3.org/2000/svg">
<path d="M15 0C6.71572 0 0 6.71572 0 15C0 19.6849 2.14822 23.8678 5.51291 26.6184L15 21.5845L24.4871 26.6184C27.8518 23.8678 30 19.6849 30 15C30 6.71572 23.2843 0 15 0Z" fill="#F1595A"/>
<path d="M23.3795 9.16178L15.848 16.399L8.52801 9.0791L6.82281 11.3452L19.3936 23.916L24.4871 26.6186C27.6681 24.018 29.7607 20.137 29.9798 15.7621L23.3795 9.16178Z" fill="#589CA5"/>
<g clip-path="url(#clip0_2127_45745)">
<circle cx="15" cy="15" r="15" fill="#F1595A"/>
<path d="M10.5 25.5L2.5 17.5L10.5 19.5V25.5Z" fill="#CB4B4C"/>
<path d="M32.5 18.5L27.5 13.5H26.5L20 7.5L18.5 9.5L15 6V21.5L20.5 30L25 29L32.5 18.5Z" fill="#CB4B4C"/>
<path fill-rule="evenodd" clip-rule="evenodd" d="M15.2429 6C17.1484 6 18.9035 6.64365 20.3029 7.72541C22.4123 9.3561 23.5688 11.9185 23.4812 14.5657C23.801 14.2994 24.1336 14.0063 24.4758 13.6844C25.4704 12.7487 27.0353 12.7964 27.9709 13.7912C28.9065 14.7858 28.8587 16.3506 27.8641 17.2862C25.8803 19.1524 24.1152 20.2757 22.9016 20.9172L22.5926 24.2157L15.2429 25.8901L7.89319 24.2157L7.60833 21.1753C6.41183 20.5975 4.41869 19.4337 2.1359 17.2862C1.14127 16.3506 1.09346 14.7858 2.02908 13.7912C2.96471 12.7964 4.52951 12.7487 5.52414 13.6844C6.05229 14.1812 6.55736 14.6092 7.02817 14.9763C6.80018 12.1856 7.96455 9.44025 10.1829 7.72535C11.5822 6.64365 13.3374 6 15.2429 6Z" fill="#91C653"/>
<mask id="mask0_2127_45745" style="mask-type:alpha" maskUnits="userSpaceOnUse" x="1" y="6" width="28" height="20">
<path fill-rule="evenodd" clip-rule="evenodd" d="M15.2429 6C17.1484 6 18.9035 6.64365 20.3029 7.72541C22.4123 9.3561 23.5688 11.9185 23.4812 14.5657C23.801 14.2994 24.1336 14.0063 24.4758 13.6844C25.4704 12.7487 27.0353 12.7964 27.9709 13.7912C28.9065 14.7858 28.8587 16.3506 27.8641 17.2862C25.8803 19.1524 24.1152 20.2757 22.9016 20.9172L22.5926 24.2157L15.2429 25.8901L7.89319 24.2157L7.60833 21.1753C6.41183 20.5975 4.41869 19.4337 2.1359 17.2862C1.14127 16.3506 1.09346 14.7858 2.02908 13.7912C2.96471 12.7964 4.52951 12.7487 5.52414 13.6844C6.05229 14.1812 6.55736 14.6092 7.02817 14.9763C6.80018 12.1856 7.96455 9.44025 10.1829 7.72535C11.5822 6.64365 13.3374 6 15.2429 6Z" fill="#7CB777"/>
</mask>
<g mask="url(#mask0_2127_45745)">
<path d="M15 3V30L23.5 29L30 15L25 10L15 3Z" fill="black" fill-opacity="0.1"/>
</g>
<path d="M10.6875 15.0828C10.4411 15.0828 10.2416 14.8832 10.2416 14.6368V13.8564C10.2416 13.61 10.4412 13.4104 10.6875 13.4104C10.9339 13.4104 11.1335 13.6101 11.1335 13.8564V14.6368C11.1335 14.8832 10.9339 15.0828 10.6875 15.0828Z" fill="#3A484A"/>
<path d="M19.3125 15.0828C19.0661 15.0828 18.8665 14.8832 18.8665 14.6368V13.8564C18.8665 13.61 19.0661 13.4104 19.3125 13.4104C19.5589 13.4104 19.7585 13.6101 19.7585 13.8564V14.6368C19.7585 14.8832 19.5589 15.0828 19.3125 15.0828Z" fill="#3A484A"/>
<path d="M15 15.4994C14.4565 15.4994 13.9462 15.2721 13.5999 14.876C13.4377 14.6905 13.4567 14.4088 13.6421 14.2467C13.8276 14.0846 14.1093 14.1035 14.2714 14.2889C14.4484 14.4914 14.7139 14.6075 15 14.6075C15.2863 14.6075 15.5517 14.4914 15.7286 14.289C15.8908 14.1036 16.1725 14.0846 16.3579 14.2467C16.5433 14.4088 16.5623 14.6905 16.4002 14.876C16.0539 15.2721 15.5435 15.4994 15 15.4994Z" fill="#3A484A"/>
<path d="M15 5.94756C14.7536 5.94756 14.5541 5.74787 14.5541 5.5016V3.44596C14.5541 3.19969 14.7536 3 15 3C15.2464 3 15.446 3.19969 15.446 3.44596V5.50154C15.446 5.74787 15.2464 5.94756 15 5.94756Z" fill="#EFEDEE"/>
<path d="M11.104 7.00783C10.9533 7.00783 10.8062 6.93137 10.7223 6.79303L9.65636 5.03545C9.52869 4.82481 9.59584 4.55059 9.80642 4.42285C10.0171 4.29518 10.2913 4.36227 10.4191 4.57297L11.485 6.33055C11.6127 6.54119 11.5455 6.81541 11.335 6.94315C11.2627 6.98692 11.1829 7.00783 11.104 7.00783Z" fill="#EFEDEE"/>
<path d="M8.34739 10.1643C8.29037 10.1643 8.23242 10.1533 8.17647 10.1301L6.27809 9.34163C6.05063 9.24712 5.94281 8.98614 6.03727 8.75868C6.13178 8.53122 6.39258 8.4234 6.62027 8.51786L8.51865 9.30629C8.74611 9.40081 8.85393 9.66178 8.75947 9.88924C8.68817 10.0608 8.52223 10.1643 8.34739 10.1643Z" fill="#EFEDEE"/>
<path d="M21.6526 10.1643C21.4778 10.1643 21.3118 10.0608 21.2405 9.88925C21.1461 9.66179 21.2539 9.40081 21.4813 9.3063L23.3798 8.51787C23.6072 8.42341 23.8683 8.53117 23.9628 8.75869C24.0572 8.98615 23.9494 9.24712 23.722 9.34163L21.8235 10.1301C21.7676 10.1533 21.7096 10.1643 21.6526 10.1643Z" fill="#EFEDEE"/>
<path d="M21.4326 5.88574C21.3226 5.68371 21.2856 5.45003 21.3278 5.22392C21.4567 4.53322 20.852 3.92847 20.1613 4.05738C19.9352 4.09963 19.7014 4.06254 19.4995 3.95255C18.8825 3.61652 18.1203 4.00476 18.0296 4.7015C17.9999 4.92955 17.8924 5.14043 17.7254 5.29851C17.2151 5.7815 17.3489 6.62625 17.9835 6.92789C18.1912 7.02667 18.3585 7.19402 18.4573 7.40167C18.7589 8.03624 19.6037 8.17001 20.0866 7.65978C20.2448 7.49273 20.4556 7.38527 20.6836 7.35556C21.3804 7.26486 21.7687 6.50279 21.4326 5.88574Z" fill="#FDCC07"/>
<path d="M19.4842 6.63378C19.8888 6.63378 20.2168 6.30581 20.2168 5.90124C20.2168 5.49667 19.8888 5.1687 19.4842 5.1687C19.0797 5.1687 18.7517 5.49667 18.7517 5.90124C18.7517 6.30581 19.0797 6.63378 19.4842 6.63378Z" fill="#F1595A"/>
<path d="M15 24.3638L6.91248 26.0381L7.90125 31.1059C8.11593 32.206 9.07974 33 10.2006 33H19.7994C20.9203 33 21.8841 32.2061 22.0988 31.1059L23.0875 26.038L15 24.3638Z" fill="#70C6D1"/>
<path d="M23.0875 22.6895H6.9125C6.39588 22.6895 5.97705 23.1083 5.97705 23.6249V25.1026C5.97705 25.6193 6.39588 26.0381 6.9125 26.0381H23.0875C23.6042 26.0381 24.023 25.6193 24.023 25.1026V23.6249C24.0229 23.1083 23.6042 22.6895 23.0875 22.6895Z" fill="#EFEDEE"/>
</g>
<defs>
<clipPath id="clip0_2127_45745">
<rect width="30" height="30" rx="15" fill="white"/>
</clipPath>
</defs>
</svg>
