<svg width="314" height="194" viewBox="0 0 314 194" fill="none" xmlns="http://www.w3.org/2000/svg">
<g clip-path="url(#clip0_3166_152571)">
<path d="M-132.133 374.778C-134.88 373.192 -137.914 372.163 -141.061 371.748C-144.207 371.333 -147.405 371.542 -150.471 372.361C-153.537 373.181 -156.411 374.595 -158.928 376.524C-161.445 378.453 -163.556 380.858 -165.141 383.601C-166.218 385.463 -167.652 387.095 -169.361 388.404C-171.071 389.713 -173.022 390.673 -175.103 391.23C-177.184 391.786 -179.355 391.928 -181.492 391.647C-183.628 391.366 -185.688 390.668 -187.553 389.593L-191.934 386.916C-193.799 385.843 -195.435 384.414 -196.746 382.71C-198.057 381.006 -199.019 379.061 -199.576 376.986C-200.134 374.911 -200.276 372.746 -199.994 370.616C-199.712 368.487 -199.013 366.433 -197.935 364.573L-55.7487 118.856C-53.4403 114.884 -49.6482 111.987 -45.2031 110.799C-40.7579 109.61 -36.0218 110.228 -32.0321 112.516C-28.0423 114.815 -25.1311 118.601 -23.9386 123.041C-22.7461 127.481 -23.3699 132.212 -25.6729 136.193L-63.1814 201.103C-63.8581 202.267 -64.2977 203.554 -64.475 204.888C-64.6522 206.222 -64.5637 207.579 -64.2145 208.879C-63.8652 210.179 -63.2622 211.398 -62.4399 212.465C-61.6176 213.532 -60.5922 214.427 -59.4225 215.098C-58.2552 215.773 -56.9657 216.212 -55.6282 216.389C-54.2906 216.565 -52.9312 216.477 -51.6279 216.129C-50.3246 215.78 -49.103 215.179 -48.0333 214.358C-46.9636 213.538 -46.0667 212.515 -45.3941 211.348L95.5137 -32.2805C96.4973 -33.9825 97.8076 -35.4744 99.3696 -36.6709C100.932 -37.8673 102.715 -38.7449 104.617 -39.2534C106.519 -39.7619 108.503 -39.8913 110.455 -39.6343C112.408 -39.3773 114.29 -38.7389 115.995 -37.7556C117.702 -36.773 119.198 -35.4645 120.398 -33.9048C121.598 -32.3452 122.478 -30.565 122.988 -28.6659C123.498 -26.7669 123.628 -24.7862 123.371 -22.837C123.113 -20.8878 122.474 -19.0083 121.488 -17.3059L-23.4939 233.218C-26.1932 237.908 -26.921 243.473 -25.5179 248.697C-24.1149 253.921 -20.6952 258.378 -16.0071 261.093C-11.3189 263.808 -7.8995 268.265 -6.49647 273.489C-5.09343 278.713 -5.82096 284.278 -8.52019 288.969L-131.573 501.6C-132.872 503.849 -134.602 505.819 -136.665 507.4C-138.728 508.98 -141.083 510.14 -143.596 510.811C-146.108 511.483 -148.729 511.654 -151.307 511.314C-153.886 510.974 -156.372 510.131 -158.624 508.831C-163.161 506.21 -166.472 501.9 -167.829 496.848C-169.186 491.795 -168.479 486.411 -165.863 481.878L-123.216 407.583C-120.047 402.051 -119.206 395.491 -120.878 389.342C-122.55 383.192 -126.597 377.955 -132.133 374.778Z" fill="#70C6D1"/>
<path d="M233.488 -31.1306C231.077 -32.522 228.415 -33.4254 225.654 -33.7893C222.893 -34.1531 220.087 -33.9703 217.396 -33.2511C214.706 -32.5319 212.184 -31.2906 209.975 -29.5981C207.766 -27.9056 205.914 -25.7953 204.523 -23.3877C203.578 -21.7538 202.32 -20.3217 200.82 -19.1732C199.32 -18.0246 197.608 -17.1821 195.781 -16.6939C193.955 -16.2057 192.05 -16.0812 190.175 -16.3277C188.301 -16.5742 186.493 -17.1867 184.856 -18.1303L181.012 -20.4787C179.375 -21.4203 177.94 -22.6746 176.79 -24.1699C175.639 -25.6652 174.795 -27.3721 174.306 -29.193C173.817 -31.0139 173.692 -32.9131 173.939 -34.7821C174.186 -36.651 174.8 -38.453 175.746 -40.0851L300.516 -255.705C302.542 -259.19 305.869 -261.732 309.77 -262.775C313.671 -263.818 317.827 -263.276 321.328 -261.268C324.829 -259.251 327.383 -255.928 328.43 -252.032C329.476 -248.136 328.929 -243.985 326.908 -240.491L293.994 -183.532C293.4 -182.51 293.014 -181.382 292.859 -180.211C292.703 -179.04 292.781 -177.85 293.087 -176.709C293.394 -175.568 293.923 -174.498 294.645 -173.562C295.366 -172.625 296.266 -171.84 297.292 -171.251C298.317 -170.659 299.448 -170.274 300.622 -170.119C301.796 -169.964 302.989 -170.041 304.132 -170.347C305.276 -170.653 306.348 -171.18 307.286 -171.9C308.225 -172.62 309.012 -173.518 309.602 -174.542L433.251 -388.329C434.114 -389.822 435.263 -391.131 436.634 -392.181C438.005 -393.231 439.569 -394.001 441.239 -394.447C442.908 -394.894 444.649 -395.007 446.362 -394.782C448.075 -394.556 449.727 -393.996 451.223 -393.133C452.721 -392.271 454.034 -391.123 455.087 -389.754C456.14 -388.385 456.912 -386.823 457.36 -385.157C457.807 -383.49 457.921 -381.752 457.696 -380.042C457.47 -378.331 456.908 -376.682 456.043 -375.188L328.82 -155.351C326.451 -151.236 325.813 -146.352 327.044 -141.768C328.275 -137.184 331.276 -133.273 335.39 -130.89C339.504 -128.507 342.504 -124.596 343.736 -120.012C344.967 -115.428 344.328 -110.545 341.96 -106.429L233.979 80.1577C232.84 82.1306 231.321 83.86 229.511 85.2469C227.701 86.6339 225.634 87.6511 223.429 88.2405C221.225 88.8298 218.925 88.9797 216.662 88.6815C214.4 88.3834 212.218 87.6431 210.242 86.5029C206.26 84.2027 203.356 80.421 202.165 75.9871C200.974 71.5533 201.594 66.8292 203.89 62.851L241.313 -2.34384C244.094 -7.19821 244.831 -12.9545 243.364 -18.3506C241.898 -23.7468 238.346 -28.3427 233.488 -31.1306Z" fill="#F1595A"/>
<circle cx="129.05" cy="124.211" r="28.4232" fill="#91C653"/>
</g>
<defs>
<clipPath id="clip0_3166_152571">
<rect width="313" height="193" fill="white" transform="translate(0.973145 0.288086)"/>
</clipPath>
</defs>
</svg>
