<svg width="51" height="128" viewBox="0 0 51 128" fill="none" xmlns="http://www.w3.org/2000/svg">
<g clip-path="url(#clip0_4145_198689)">
<path d="M-107.574 221.145C-105.184 222.501 -102.355 222.859 -99.7017 222.141C-97.0487 221.423 -94.7863 219.687 -93.4062 217.31L-65.4648 168.654C-65.1095 168.032 -64.6351 167.487 -64.0687 167.05C-63.5023 166.612 -62.8552 166.291 -62.1643 166.104C-61.4735 165.917 -60.7525 165.868 -60.0427 165.96C-59.333 166.052 -58.6484 166.284 -58.0283 166.641C-56.7811 167.362 -55.8699 168.547 -55.4936 169.938C-55.1172 171.328 -55.3062 172.811 -56.0196 174.063L-160.017 355.241C-160.807 356.617 -161.318 358.136 -161.522 359.71C-161.725 361.284 -161.616 362.882 -161.201 364.415C-160.787 365.947 -160.074 367.382 -159.105 368.639C-158.136 369.895 -156.928 370.949 -155.552 371.739C-152.769 373.335 -149.467 373.761 -146.37 372.923C-143.274 372.085 -140.637 370.051 -139.039 367.27L15.7308 97.6185C16.4693 96.332 16.947 94.9127 17.137 93.4416C17.3269 91.9704 17.2252 90.4763 16.8377 89.0445C16.4502 87.6126 15.7844 86.2711 14.8785 85.0965C13.9725 83.922 12.8441 82.9374 11.5576 82.199C8.95678 80.7073 5.87011 80.3094 2.97602 81.0927C0.0819213 81.8759 -2.38273 83.7763 -3.87626 86.376L-26.2221 125.306C-27.0134 126.642 -28.2949 127.617 -29.794 128.022C-31.293 128.428 -32.8911 128.233 -34.2483 127.478C-35.5846 126.687 -36.5593 125.405 -36.965 123.906C-37.3708 122.407 -37.1754 120.809 -36.4205 119.452L32.3899 -0.425653C33.7251 -2.75791 34.0808 -5.52458 33.3787 -8.11869C32.6766 -10.7128 30.9742 -12.9225 28.6449 -14.2629C26.3154 -15.5858 23.5576 -15.9353 20.9717 -15.2354C18.3858 -14.5356 16.1809 -12.843 14.8364 -10.5258L-111.42 206.933C-112.789 209.329 -113.153 212.17 -112.432 214.833C-111.712 217.497 -109.965 219.766 -107.574 221.145Z" fill="#FDCC07"/>
</g>
<defs>
<clipPath id="clip0_4145_198689">
<rect width="51" height="128" fill="white"/>
</clipPath>
</defs>
</svg>
