<svg width="35" height="145" viewBox="0 0 35 145" fill="none" xmlns="http://www.w3.org/2000/svg">
<path d="M-106.574 237.145C-104.184 238.501 -101.355 238.859 -98.7017 238.141C-96.0487 237.423 -93.7863 235.687 -92.4062 233.31L-64.4648 184.654C-64.1095 184.032 -63.6351 183.487 -63.0687 183.05C-62.5023 182.612 -61.8552 182.291 -61.1643 182.104C-60.4735 181.917 -59.7525 181.868 -59.0427 181.96C-58.333 182.052 -57.6484 182.284 -57.0283 182.641C-55.7811 183.362 -54.8699 184.547 -54.4936 185.938C-54.1172 187.328 -54.3062 188.811 -55.0196 190.063L-159.017 371.241C-159.807 372.617 -160.318 374.136 -160.522 375.71C-160.725 377.284 -160.616 378.882 -160.201 380.415C-159.787 381.947 -159.074 383.382 -158.105 384.639C-157.136 385.895 -155.928 386.949 -154.552 387.739C-151.769 389.335 -148.467 389.761 -145.37 388.923C-142.274 388.085 -139.637 386.051 -138.039 383.27L16.7308 113.618C17.4693 112.332 17.947 110.913 18.137 109.442C18.3269 107.97 18.2252 106.476 17.8377 105.044C17.4502 103.613 16.7844 102.271 15.8785 101.097C14.9725 99.922 13.8441 98.9374 12.5576 98.199C9.95678 96.7073 6.87011 96.3094 3.97602 97.0927C1.08192 97.8759 -1.38273 99.7763 -2.87626 102.376L-25.2221 141.306C-26.0134 142.642 -27.2949 143.617 -28.794 144.022C-30.293 144.428 -31.8911 144.233 -33.2483 143.478C-34.5846 142.687 -35.5593 141.405 -35.965 139.906C-36.3708 138.407 -36.1754 136.809 -35.4205 135.452L33.3899 15.5743C34.7251 13.2421 35.0808 10.4754 34.3787 7.88131C33.6766 5.28721 31.9742 3.07754 29.6449 1.73707C27.3154 0.414229 24.5576 0.06472 21.9717 0.764579C19.3858 1.46444 17.1809 3.15705 15.8364 5.47422L-110.42 222.933C-111.789 225.329 -112.153 228.17 -111.432 230.833C-110.712 233.497 -108.965 235.766 -106.574 237.145Z" fill="#FDCC07"/>
</svg>
