<svg width="243" height="194" viewBox="0 0 243 194" fill="none" xmlns="http://www.w3.org/2000/svg">
<g clip-path="url(#clip0_3166_152575)">
<path d="M261.716 79.7044C259.507 78.4315 257.068 77.605 254.538 77.2722C252.008 76.9393 249.437 77.1066 246.972 77.7645C244.507 78.4224 242.197 79.558 240.173 81.1063C238.149 82.6546 236.451 84.5852 235.177 86.7876C234.312 88.2823 233.158 89.5925 231.784 90.6432C230.41 91.6939 228.841 92.4646 227.168 92.9113C225.494 93.3579 223.749 93.4717 222.031 93.2462C220.314 93.0208 218.658 92.4604 217.158 91.5972L213.636 89.4489C212.136 88.5875 210.821 87.44 209.767 86.0721C208.713 84.7042 207.939 83.1427 207.491 81.4769C207.043 79.8111 206.929 78.0737 207.155 76.3639C207.382 74.6542 207.945 73.0057 208.811 71.5127L323.129 -125.739C324.985 -128.928 328.033 -131.253 331.607 -132.207C335.181 -133.161 338.989 -132.665 342.197 -130.829C345.405 -128.983 347.745 -125.944 348.704 -122.38C349.663 -118.815 349.161 -115.018 347.31 -111.822L317.153 -59.7149C316.609 -58.78 316.255 -57.7473 316.113 -56.6761C315.97 -55.6049 316.041 -54.5162 316.322 -53.4724C316.603 -52.4287 317.088 -51.4503 317.749 -50.5936C318.41 -49.7369 319.234 -49.0186 320.175 -48.48C321.113 -47.938 322.15 -47.586 323.226 -47.444C324.301 -47.302 325.394 -47.3729 326.442 -47.6526C327.49 -47.9323 328.472 -48.4152 329.332 -49.0738C330.192 -49.7324 330.913 -50.5536 331.454 -51.4904L444.744 -247.065C445.534 -248.432 446.588 -249.629 447.844 -250.59C449.099 -251.55 450.533 -252.255 452.062 -252.663C453.592 -253.071 455.187 -253.175 456.757 -252.969C458.326 -252.762 459.84 -252.25 461.211 -251.461C462.583 -250.672 463.786 -249.621 464.751 -248.369C465.715 -247.117 466.423 -245.688 466.833 -244.164C467.243 -242.639 467.348 -241.049 467.141 -239.484C466.934 -237.92 466.419 -236.411 465.627 -235.044L349.061 -33.9343C346.891 -30.1694 346.306 -25.7015 347.434 -21.508C348.562 -17.3145 351.312 -13.7367 355.081 -11.557C358.85 -9.37735 361.599 -5.79945 362.727 -1.60596C363.855 2.58753 363.271 7.0553 361.1 10.8203L262.166 181.512C261.121 183.317 259.73 184.899 258.072 186.168C256.413 187.437 254.52 188.368 252.5 188.907C250.48 189.446 248.373 189.583 246.3 189.31C244.226 189.037 242.227 188.36 240.417 187.317C236.769 185.213 234.108 181.753 233.016 177.697C231.925 173.641 232.494 169.319 234.597 165.68L268.885 106.039C271.433 101.598 272.109 96.3321 270.765 91.3956C269.421 86.4591 266.167 82.2548 261.716 79.7044Z" fill="#FCFCFC"/>
<path d="M222.129 -112.469C224.338 -111.196 226.777 -110.37 229.307 -110.037C231.837 -109.704 234.408 -109.871 236.873 -110.529C239.338 -111.187 241.648 -112.323 243.672 -113.871C245.696 -115.419 247.393 -117.35 248.667 -119.552C249.533 -121.047 250.686 -122.357 252.061 -123.408C253.435 -124.459 255.004 -125.229 256.677 -125.676C258.35 -126.123 260.096 -126.236 261.813 -126.011C263.531 -125.785 265.187 -125.225 266.687 -124.362L270.209 -122.214C271.709 -121.352 273.023 -120.205 274.078 -118.837C275.132 -117.469 275.905 -115.907 276.354 -114.242C276.802 -112.576 276.916 -110.838 276.689 -109.129C276.463 -107.419 275.9 -105.77 275.034 -104.277L160.716 92.9746C158.86 96.1629 155.811 98.4887 152.237 99.4426C148.664 100.397 144.856 99.9008 141.648 98.0639C138.44 96.2183 136.1 93.1792 135.141 89.615C134.182 86.0507 134.684 82.2531 136.535 79.0571L166.692 26.9502C167.236 26.0154 167.589 24.9827 167.732 23.9115C167.875 22.8402 167.803 21.7515 167.523 20.7078C167.242 19.664 166.757 18.6857 166.096 17.829C165.435 16.9722 164.61 16.254 163.67 15.7153C162.731 15.1734 161.695 14.8213 160.619 14.6794C159.544 14.5374 158.451 14.6083 157.403 14.888C156.355 15.1676 155.373 15.6506 154.513 16.3092C153.653 16.9677 152.932 17.7889 152.391 18.7257L39.1012 214.301C38.3103 215.667 37.257 216.865 36.0011 217.825C34.7452 218.786 33.3117 219.49 31.7823 219.898C30.2529 220.306 28.6578 220.41 27.0881 220.204C25.5184 219.998 24.0047 219.485 22.634 218.696C21.2616 217.907 20.0588 216.857 19.094 215.605C18.1293 214.353 17.4218 212.924 17.0117 211.399C16.6016 209.875 16.497 208.285 16.704 206.72C16.9111 205.155 17.4255 203.646 18.2181 202.28L134.783 1.16967C136.953 -2.5953 137.539 -7.06314 136.411 -11.2566C135.283 -15.4501 132.533 -19.0279 128.764 -21.2076C124.995 -23.3873 122.245 -26.9652 121.117 -31.1587C119.989 -35.3522 120.574 -39.8199 122.744 -43.5849L221.679 -214.277C222.723 -216.082 224.114 -217.664 225.773 -218.933C227.432 -220.202 229.325 -221.132 231.345 -221.671C233.365 -222.21 235.472 -222.348 237.545 -222.075C239.618 -221.802 241.617 -221.125 243.427 -220.082C247.076 -217.978 249.737 -214.518 250.828 -210.462C251.919 -206.406 251.351 -202.084 249.248 -198.445L214.96 -138.804C212.412 -134.363 211.736 -129.097 213.08 -124.16C214.424 -119.224 217.678 -115.019 222.129 -112.469Z" fill="#FDCC07"/>
<circle cx="144.171" cy="149.047" r="15.5874" fill="#91C653"/>
</g>
<defs>
<clipPath id="clip0_3166_152575">
<rect width="242" height="193" fill="white" transform="translate(0.973145 0.288086)"/>
</clipPath>
</defs>
</svg>
