<svg width="30" height="30" viewBox="0 0 30 30" fill="none" xmlns="http://www.w3.org/2000/svg">
<g clip-path="url(#clip0_880_16238)">
<path d="M30 15C30 23.2844 23.3728 30 15.1974 30C7.02203 30 0.394775 23.2844 0.394775 15C0.394775 6.71562 7.02203 0 15.1974 0C23.3728 0 30 6.71562 30 15Z" fill="#70C6D1"/>
<path d="M29.9241 16.5282L18.5685 5.02455C18.4219 4.85976 18.252 4.71785 18.0569 4.6041L15.6927 2.26538H14.702V4.77347C14.618 4.73456 14.5363 4.68718 14.4588 4.62973C13.9601 4.25963 13.2547 4.07103 12.3381 4.6041C10.3631 5.7524 10.96 9.79399 12.4357 11.2456L12.9888 11.7869H7.51643C6.7234 11.7869 6.0808 12.4383 6.0808 13.2419V16.484C6.0808 16.8898 6.24456 17.2565 6.50882 17.5204L6.92352 17.939H6.49979C5.8468 17.939 5.31781 18.4746 5.31781 19.1363V23.5383C5.31781 23.889 5.46711 24.2037 5.70427 24.4225L10.4536 29.213C11.9428 29.7232 13.5381 29.9999 15.1974 29.9999C22.8634 29.9999 29.1684 24.0948 29.9241 16.5282Z" fill="#589CA5"/>
<path d="M25.0769 19.1363V23.5383C25.0769 24.1998 24.5479 24.7361 23.8952 24.7361H6.49956C5.8468 24.7361 5.31781 24.1998 5.31781 23.5383V19.1363C5.31781 18.4748 5.8468 17.9392 6.49956 17.9392H23.8952C24.5479 17.9392 25.0769 18.4748 25.0769 19.1363Z" fill="#FF4F19"/>
<path d="M25.077 19.1363V23.5383C25.077 24.1998 24.548 24.7361 23.8952 24.7361H15.1974V17.9392H23.8952C24.548 17.9392 25.077 18.4748 25.077 19.1363Z" fill="#EE2600"/>
<path d="M7.43469 17.939H9.56036V24.7358H7.43469V17.939Z" fill="#CA1C00"/>
<path d="M20.8345 17.939H22.9601V24.7358H20.8345V17.939Z" fill="#A01700"/>
<path d="M19.589 22.8463V19.8285C19.1327 19.8285 18.7628 19.4536 18.7628 18.9912H11.6318C11.6318 19.4536 11.2618 19.8285 10.8054 19.8285V22.8463C11.2618 22.8463 11.6318 23.2212 11.6318 23.6837H18.7628C18.7628 23.2212 19.1327 22.8463 19.589 22.8463Z" fill="#CA1C00"/>
<path d="M18.7628 23.6837C18.7628 23.2212 19.1328 22.8463 19.589 22.8463V19.8285C19.1328 19.8285 18.7628 19.4536 18.7628 18.9912H15.1972V23.6837H18.7628Z" fill="#A01700"/>
<path d="M23.4193 12.7656H23.9479L24.314 11.7869H7.51648C6.72345 11.7869 6.08063 12.4383 6.08063 13.2419V16.484C6.08063 17.2874 6.72345 17.9388 7.51648 17.9388H24.3142L23.9481 16.9603H23.4196V12.7656H23.4193Z" fill="#9331B2"/>
<path d="M23.9476 16.9607L24.3144 17.9392H15.1974V11.7869H24.3144L23.9476 12.7653H23.4193V16.9607H23.9476Z" fill="#451152"/>
<path d="M7.83065 16.9606H23.4193V12.7656H7.83065C7.45503 12.7656 7.15033 13.0742 7.15033 13.455V16.2712C7.15033 16.6518 7.45503 16.9606 7.83065 16.9606Z" fill="white"/>
<path d="M15.1974 12.7654H23.4193V16.9608H15.1974V12.7654Z" fill="#FFF5CB"/>
<path d="M14.7021 2.26562H15.6928V4.98611H14.7021V2.26562Z" fill="#C06200"/>
<path d="M15.1974 2.26562H15.6927V4.98611H15.1974V2.26562Z" fill="#703700"/>
<path d="M14.4588 4.62984C13.9599 4.25974 13.2547 4.07114 12.3379 4.60421C10.0358 5.94294 11.2286 11.2139 13.2344 11.7293C14.1315 11.9598 14.5446 11.4313 15.1974 11.3695V4.89535C14.9388 4.88345 14.6824 4.79578 14.4588 4.62984Z" fill="#FF633E"/>
<path d="M15.936 4.62984C16.4349 4.25974 17.1401 4.07114 18.0569 4.60421C20.359 5.94294 19.1662 11.2139 17.1604 11.7293C16.2633 11.9598 15.8502 11.4313 15.1974 11.3695V4.89535C15.456 4.88345 15.7124 4.79578 15.936 4.62984Z" fill="#FF3200"/>
</g>
<defs>
<clipPath id="clip0_880_16238">
<rect width="29.6053" height="30" fill="white" transform="translate(0.394775)"/>
</clipPath>
</defs>
</svg>
