<svg width="30" height="30" viewBox="0 0 30 30" fill="none" xmlns="http://www.w3.org/2000/svg">
<path d="M15 30C23.2843 30 30 23.2843 30 15C30 6.71573 23.2843 0 15 0C6.71573 0 0 6.71573 0 15C0 23.2843 6.71573 30 15 30Z" fill="#FDCC07"/>
<path d="M30 14.9999C30 14.2838 29.9498 13.5793 29.8528 12.89L25.1603 8.19751L4.83972 21.6851L13.0257 29.8712C13.6718 29.9561 14.3307 29.9999 15 29.9999C23.2843 29.9999 30 23.2842 30 14.9999Z" fill="#FDBA12"/>
<path d="M4.83972 8.19751H25.1602V21.6851H4.83972V8.19751Z" fill="#707789"/>
<path d="M14.8287 8.19751H25.1603V21.6851H14.8287V8.19751Z" fill="#555A66"/>
<path d="M6.92572 9.78735H8.70105V20.0956H6.92572V9.78735Z" fill="#DCE1EB"/>
<path d="M5.95221 10.6489H9.67461V12.367H5.95221V10.6489Z" fill="#FE6A16"/>
<path d="M11.6217 9.78735H13.397V20.0956H11.6217V9.78735Z" fill="#DCE1EB"/>
<path d="M10.6481 16.605H14.3705V18.323H10.6481V16.605Z" fill="#FE6A16"/>
<path d="M16.3251 9.78735H18.1004V20.0956H16.3251V9.78735Z" fill="#BEC3D2"/>
<path d="M15.3516 12.3672H19.074V14.0852H15.3516V12.3672Z" fill="#F24500"/>
<path d="M21.0211 9.78735H22.7964V20.0956H21.0211V9.78735Z" fill="#BEC3D2"/>
<path d="M20.0475 14.5898H23.77V16.3079H20.0475V14.5898Z" fill="#F24500"/>
</svg>
