<svg xmlns="http://www.w3.org/2000/svg" width="39.069" height="37.393" viewBox="0 0 39.069 37.393">
  <g id="Group_6438" data-name="Group 6438" transform="translate(1.1 1.1)">
    <path id="Path_10711" data-name="Path 10711" d="M714.861,706.156a.838.838,0,0,1-.838-.838v-1.676c0-.955,2.769-2.514,5.03-2.514h0c2.26,0,5.029,1.559,5.029,2.514v1.676a.838.838,0,0,1-.838.838Z" transform="translate(-700.616 -692.75)" fill="none" stroke="#f15859" stroke-miterlimit="10" stroke-width="2.2"/>
    <path id="Path_10712" data-name="Path 10712" d="M728.251,655.124a3.375,3.375,0,0,0,3.352-3.591v-1.2a3.36,3.36,0,1,0-6.7,0v1.2A3.375,3.375,0,0,0,728.251,655.124Z" transform="translate(-709.817 -646.745)" fill="none" stroke="#f15859" stroke-miterlimit="10" stroke-width="2.2"/>
    <path id="Path_10713" data-name="Path 10713" d="M714.861,847.554a.838.838,0,0,1-.838-.838V845.04c0-.955,2.769-2.514,5.03-2.514h0c2.26,0,5.029,1.559,5.029,2.514v1.676a.838.838,0,0,1-.838.838Z" transform="translate(-700.616 -812.36)" fill="none" stroke="#91c653" stroke-miterlimit="10" stroke-width="2.2"/>
    <path id="Path_10714" data-name="Path 10714" d="M728.251,796.521a3.376,3.376,0,0,0,3.352-3.591v-1.2a3.36,3.36,0,1,0-6.7,0v1.2A3.375,3.375,0,0,0,728.251,796.521Z" transform="translate(-709.817 -766.356)" fill="none" stroke="#91c653" stroke-miterlimit="10" stroke-width="2.2"/>
    <path id="Path_10715" data-name="Path 10715" d="M627.848,782.294a.838.838,0,0,1-.838-.838V779.78c0-.955,2.769-2.514,5.03-2.514h0c2.26,0,5.029,1.559,5.029,2.514v1.676a.838.838,0,0,1-.838.838Z" transform="translate(-627.01 -757.156)" fill="none" stroke="#70c6d1" stroke-miterlimit="10" stroke-width="2.2"/>
    <path id="Path_10716" data-name="Path 10716" d="M641.237,731.261a3.375,3.375,0,0,0,3.352-3.591v-1.2a3.36,3.36,0,1,0-6.7,0v1.2A3.375,3.375,0,0,0,641.237,731.261Z" transform="translate(-636.21 -711.151)" fill="none" stroke="#70c6d1" stroke-miterlimit="10" stroke-width="2.2"/>
    <path id="Path_10717" data-name="Path 10717" d="M801.875,782.294a.838.838,0,0,1-.838-.838V779.78c0-.955,2.769-2.514,5.03-2.514h0c2.26,0,5.03,1.559,5.03,2.514v1.676a.838.838,0,0,1-.838.838Z" transform="translate(-774.223 -757.156)" fill="none" stroke="#fdcc09" stroke-miterlimit="10" stroke-width="2.2"/>
    <path id="Path_10718" data-name="Path 10718" d="M815.266,731.261a3.375,3.375,0,0,0,3.352-3.591v-1.2a3.36,3.36,0,1,0-6.7,0v1.2A3.375,3.375,0,0,0,815.266,731.261Z" transform="translate(-783.424 -711.151)" fill="none" stroke="#fdcc09" stroke-miterlimit="10" stroke-width="2.2"/>
    <path id="Path_10719" data-name="Path 10719" d="M662.393,675.888a15.973,15.973,0,0,1,7.117-5.588" transform="translate(-656.941 -666.671)" fill="none" stroke="#fff" stroke-miterlimit="10" stroke-width="2.2"/>
    <path id="Path_10720" data-name="Path 10720" d="M667.835,831.019a16,16,0,0,1-5.441-4.807" transform="translate(-656.942 -798.56)" fill="none" stroke="#fff" stroke-miterlimit="10" stroke-width="2.2"/>
    <path id="Path_10721" data-name="Path 10721" d="M791.839,675.888a15.971,15.971,0,0,0-7.117-5.588" transform="translate(-760.422 -666.671)" fill="none" stroke="#fff" stroke-miterlimit="10" stroke-width="2.2"/>
    <path id="Path_10722" data-name="Path 10722" d="M795.595,831.019a16,16,0,0,0,5.441-4.807" transform="translate(-769.62 -798.56)" fill="none" stroke="#fff" stroke-miterlimit="10" stroke-width="2.2"/>
  </g>
</svg>
