<svg width="590" height="454" viewBox="0 0 590 454" fill="none" xmlns="http://www.w3.org/2000/svg">
<g clip-path="url(#clip0_2731_96375)">
<path d="M564.317 534.343C563.088 533.636 561.731 533.175 560.325 532.989C558.918 532.802 557.489 532.893 556.119 533.256C554.749 533.619 553.466 534.247 552.342 535.105C551.218 535.962 550.276 537.031 549.569 538.252C549.09 539.079 548.45 539.805 547.688 540.386C546.925 540.968 546.054 541.394 545.125 541.64C544.196 541.886 543.226 541.948 542.272 541.822C541.317 541.695 540.397 541.383 539.563 540.904L537.553 539.755C536.718 539.275 535.986 538.637 535.398 537.877C534.811 537.117 534.38 536.25 534.129 535.326C533.879 534.401 533.814 533.437 533.938 532.488C534.063 531.539 534.375 530.625 534.855 529.797L598.266 420.498C598.775 419.622 599.452 418.854 600.259 418.239C601.067 417.623 601.989 417.172 602.973 416.912C603.957 416.651 604.984 416.585 605.994 416.719C607.005 416.852 607.979 417.182 608.862 417.69C609.746 418.197 610.52 418.872 611.142 419.677C611.763 420.481 612.219 421.398 612.484 422.377C612.75 423.355 612.818 424.375 612.686 425.379C612.555 426.383 612.225 427.351 611.717 428.227L594.971 457.083C594.669 457.601 594.474 458.173 594.395 458.767C594.317 459.361 594.357 459.965 594.514 460.544C594.671 461.123 594.941 461.666 595.309 462.142C595.677 462.617 596.136 463.016 596.659 463.316C597.182 463.617 597.758 463.813 598.356 463.892C598.954 463.972 599.561 463.933 600.144 463.779C600.726 463.625 601.272 463.358 601.749 462.993C602.227 462.629 602.627 462.174 602.927 461.655L665.797 353.277C666.236 352.52 666.821 351.857 667.518 351.325C668.216 350.793 669.012 350.404 669.862 350.178C670.712 349.953 671.599 349.897 672.471 350.012C673.344 350.128 674.186 350.413 674.948 350.852C675.712 351.29 676.381 351.874 676.919 352.569C677.456 353.264 677.85 354.057 678.079 354.903C678.308 355.748 678.368 356.63 678.254 357.498C678.14 358.365 677.855 359.202 677.415 359.959L612.767 471.401C611.564 473.487 611.242 475.965 611.872 478.291C612.502 480.617 614.033 482.604 616.13 483.815C618.236 485.012 619.781 486.987 620.428 489.309C621.075 491.631 620.77 494.111 619.582 496.206L564.68 590.792C564.1 591.793 563.327 592.67 562.406 593.372C561.484 594.075 560.432 594.59 559.309 594.887C558.185 595.185 557.014 595.26 555.86 595.107C554.707 594.954 553.595 594.577 552.587 593.997C550.557 592.828 549.075 590.907 548.466 588.657C547.856 586.407 548.169 584.011 549.335 581.994L568.359 548.943C569.765 546.478 570.13 543.558 569.372 540.821C568.615 538.084 566.797 535.755 564.317 534.343Z" fill="#91C653"/>
<path d="M596.308 134.927L578.231 165.896C577.39 167.343 577.163 169.061 577.6 170.673C578.036 172.285 579.101 173.66 580.561 174.498C581.285 174.911 582.084 175.18 582.913 175.288C583.742 175.396 584.584 175.342 585.392 175.128C586.199 174.914 586.956 174.544 587.62 174.041C588.283 173.537 588.839 172.909 589.257 172.193L607.334 141.223C607.763 140.491 608.038 139.68 608.143 138.84C608.247 138 608.179 137.147 607.943 136.334C607.706 135.52 607.305 134.762 606.765 134.105C606.225 133.448 605.556 132.906 604.799 132.512C603.342 131.752 601.645 131.579 600.062 132.03C598.479 132.48 597.134 133.518 596.308 134.927Z" fill="#E2FCFF"/>
<path d="M383.248 429.542L177.876 781.383C177.198 782.544 176.757 783.825 176.58 785.155C176.403 786.484 176.492 787.835 176.843 789.13C177.194 790.425 177.799 791.639 178.625 792.703C179.45 793.766 180.479 794.658 181.654 795.328C182.827 795.999 184.123 796.435 185.467 796.61C186.811 796.785 188.177 796.697 189.486 796.35C190.795 796.003 192.023 795.404 193.098 794.587C194.173 793.771 195.075 792.753 195.752 791.591L401.139 439.747C401.832 438.557 402.275 437.241 402.442 435.877C402.609 434.514 402.496 433.131 402.111 431.812C401.725 430.492 401.075 429.264 400.198 428.198C399.322 427.133 398.237 426.254 397.009 425.613C394.648 424.378 391.894 424.097 389.327 424.83C386.761 425.563 384.581 427.252 383.248 429.542Z" fill="#91C653"/>
<path d="M497.802 451.087C498.078 451.248 498.279 451.509 498.362 451.815C498.445 452.121 498.403 452.447 498.245 452.722C498.074 452.976 497.812 453.156 497.512 453.226C497.212 453.295 496.896 453.249 496.629 453.097C496.362 452.944 496.163 452.697 496.074 452.405C495.985 452.113 496.012 451.798 496.149 451.525C496.311 451.252 496.575 451.053 496.885 450.971C497.194 450.889 497.523 450.931 497.802 451.087Z" fill="#FDCC07"/>
<path d="M502.268 445.133C502.915 444.961 503.299 444.304 503.125 443.664C502.952 443.024 502.287 442.644 501.64 442.816C500.993 442.987 500.609 443.645 500.783 444.285C500.956 444.925 501.621 445.304 502.268 445.133Z" fill="#FDCC07"/>
<path d="M507.027 436.979C507.673 436.808 508.057 436.15 507.884 435.51C507.711 434.87 507.046 434.491 506.399 434.662C505.752 434.834 505.368 435.491 505.541 436.131C505.715 436.771 506.38 437.151 507.027 436.979Z" fill="#FDCC07"/>
<path d="M512.08 426.626C512.336 426.794 512.518 427.054 512.589 427.351C512.659 427.648 512.613 427.96 512.458 428.224C512.304 428.488 512.054 428.684 511.759 428.772C511.464 428.861 511.146 428.834 510.869 428.699C510.613 428.53 510.431 428.271 510.36 427.974C510.29 427.677 510.336 427.365 510.491 427.1C510.645 426.836 510.895 426.64 511.19 426.552C511.485 426.464 511.803 426.49 512.08 426.626Z" fill="#FDCC07"/>
<path d="M516.553 420.67C517.2 420.499 517.584 419.841 517.41 419.201C517.237 418.561 516.572 418.181 515.925 418.353C515.278 418.524 514.894 419.182 515.068 419.822C515.241 420.462 515.906 420.841 516.553 420.67Z" fill="#FDCC07"/>
<path d="M521.312 412.516C521.959 412.345 522.342 411.687 522.169 411.047C521.996 410.407 521.331 410.028 520.684 410.199C520.037 410.371 519.653 411.028 519.827 411.668C520 412.308 520.665 412.688 521.312 412.516Z" fill="#FDCC07"/>
<path d="M526.358 402.165C526.615 402.334 526.797 402.593 526.867 402.89C526.938 403.187 526.891 403.499 526.737 403.763C526.583 404.027 526.332 404.223 526.037 404.312C525.742 404.4 525.424 404.373 525.148 404.238C524.891 404.069 524.709 403.81 524.639 403.513C524.568 403.216 524.615 402.904 524.769 402.639C524.923 402.375 525.173 402.179 525.468 402.091C525.764 402.003 526.082 402.029 526.358 402.165Z" fill="#FDCC07"/>
<path d="M512.675 448.709C512.932 448.878 513.114 449.137 513.185 449.434C513.255 449.731 513.208 450.043 513.054 450.307C512.9 450.572 512.65 450.768 512.355 450.856C512.059 450.944 511.741 450.918 511.465 450.782C511.208 450.613 511.026 450.354 510.956 450.057C510.886 449.76 510.932 449.448 511.086 449.184C511.241 448.92 511.491 448.723 511.786 448.635C512.081 448.547 512.399 448.573 512.675 448.709Z" fill="#FDCC07"/>
<path d="M517.435 440.555C517.6 440.615 517.75 440.709 517.875 440.832C517.999 440.955 518.096 441.103 518.157 441.266C518.218 441.429 518.242 441.603 518.228 441.777C518.214 441.95 518.162 442.118 518.076 442.27C517.99 442.421 517.872 442.553 517.729 442.654C517.586 442.756 517.423 442.826 517.251 442.859C517.078 442.892 516.9 442.888 516.73 442.847C516.559 442.805 516.399 442.727 516.262 442.619C516.005 442.45 515.823 442.191 515.753 441.894C515.682 441.597 515.729 441.284 515.883 441.02C516.037 440.756 516.288 440.56 516.583 440.472C516.878 440.384 517.196 440.41 517.472 440.545L517.435 440.555Z" fill="#FDCC07"/>
<path d="M521.899 434.594C522.546 434.423 522.929 433.765 522.756 433.125C522.583 432.485 521.918 432.106 521.271 432.277C520.624 432.448 520.24 433.106 520.413 433.746C520.587 434.386 521.252 434.766 521.899 434.594Z" fill="#FDCC07"/>
<path d="M526.953 424.248C527.21 424.417 527.392 424.676 527.463 424.973C527.533 425.27 527.486 425.582 527.332 425.846C527.178 426.11 526.928 426.306 526.633 426.395C526.338 426.483 526.019 426.456 525.743 426.321C525.595 426.248 525.463 426.146 525.356 426.021C525.249 425.896 525.169 425.75 525.121 425.593C525.073 425.436 525.058 425.271 525.077 425.109C525.096 424.946 525.149 424.789 525.232 424.647C525.315 424.505 525.426 424.381 525.559 424.283C525.692 424.186 525.844 424.116 526.005 424.079C526.167 424.041 526.334 424.037 526.497 424.066C526.66 424.095 526.815 424.157 526.953 424.248Z" fill="#FDCC07"/>
<path d="M531.713 416.094C531.97 416.263 532.152 416.522 532.223 416.819C532.293 417.116 532.246 417.428 532.092 417.692C531.938 417.956 531.688 418.153 531.393 418.241C531.098 418.329 530.779 418.303 530.503 418.167C530.246 417.998 530.064 417.739 529.994 417.442C529.924 417.145 529.97 416.833 530.124 416.569C530.279 416.305 530.529 416.108 530.824 416.02C531.119 415.932 531.437 415.958 531.713 416.094Z" fill="#FDCC07"/>
<path d="M536.176 410.133C536.823 409.961 537.207 409.304 537.033 408.664C536.86 408.024 536.195 407.644 535.548 407.816C534.901 407.987 534.517 408.645 534.691 409.285C534.864 409.924 535.529 410.304 536.176 410.133Z" fill="#FDCC07"/>
<path d="M527.542 446.333C527.679 446.412 527.799 446.516 527.895 446.641C527.992 446.766 528.062 446.908 528.103 447.059C528.144 447.211 528.154 447.369 528.133 447.525C528.112 447.68 528.06 447.83 527.98 447.965C527.901 448.101 527.795 448.22 527.669 448.315C527.543 448.41 527.399 448.48 527.246 448.52C527.093 448.561 526.933 448.571 526.776 448.55C526.618 448.529 526.467 448.478 526.33 448.399C526.053 448.24 525.851 447.979 525.769 447.673C525.687 447.366 525.731 447.04 525.892 446.767C526.052 446.493 526.316 446.293 526.626 446.212C526.936 446.13 527.265 446.174 527.542 446.333Z" fill="#FDCC07"/>
<path d="M532.301 438.179C532.578 438.338 532.78 438.599 532.862 438.906C532.944 439.212 532.9 439.538 532.739 439.812C532.578 440.086 532.314 440.285 532.005 440.367C531.695 440.448 531.366 440.404 531.089 440.245C530.951 440.166 530.831 440.062 530.735 439.937C530.639 439.812 530.568 439.67 530.528 439.519C530.487 439.367 530.477 439.209 530.498 439.054C530.519 438.898 530.571 438.748 530.65 438.613C530.73 438.477 530.836 438.358 530.962 438.263C531.088 438.168 531.232 438.098 531.385 438.058C531.538 438.018 531.698 438.008 531.855 438.028C532.012 438.049 532.164 438.1 532.301 438.179Z" fill="#FDCC07"/>
<path d="M537.061 430.025C537.338 430.184 537.539 430.446 537.621 430.752C537.704 431.058 537.66 431.384 537.499 431.658C537.338 431.932 537.074 432.131 536.764 432.213C536.455 432.294 536.125 432.25 535.848 432.091C535.571 431.932 535.37 431.671 535.287 431.365C535.205 431.059 535.249 430.733 535.41 430.459C535.571 430.185 535.835 429.985 536.145 429.904C536.454 429.823 536.784 429.866 537.061 430.025Z" fill="#FDCC07"/>
<path d="M541.819 421.872C541.971 421.943 542.106 422.044 542.216 422.17C542.326 422.296 542.408 422.443 542.457 422.602C542.506 422.76 542.52 422.928 542.5 423.093C542.48 423.257 542.425 423.416 542.339 423.559C542.253 423.702 542.138 423.825 542.001 423.921C541.864 424.017 541.708 424.084 541.544 424.117C541.379 424.15 541.21 424.149 541.046 424.113C540.882 424.078 540.727 424.009 540.592 423.91C540.454 423.832 540.334 423.727 540.238 423.602C540.142 423.478 540.071 423.336 540.031 423.184C539.99 423.032 539.98 422.874 540.001 422.719C540.022 422.563 540.074 422.414 540.153 422.278C540.233 422.142 540.339 422.023 540.465 421.928C540.591 421.833 540.734 421.763 540.888 421.723C541.041 421.683 541.201 421.673 541.358 421.694C541.515 421.714 541.667 421.766 541.804 421.844L541.819 421.872Z" fill="#FDCC07"/>
<path d="M546.571 413.72C546.848 413.879 547.05 414.14 547.132 414.446C547.214 414.753 547.17 415.079 547.01 415.352C546.849 415.626 546.585 415.826 546.275 415.907C545.966 415.989 545.636 415.945 545.359 415.786C545.082 415.627 544.88 415.366 544.798 415.06C544.716 414.753 544.76 414.427 544.921 414.153C545.082 413.88 545.346 413.68 545.655 413.599C545.965 413.517 546.294 413.561 546.571 413.72Z" fill="#FDCC07"/>
<path d="M537.654 452.101C537.911 452.27 538.093 452.53 538.163 452.827C538.233 453.123 538.187 453.436 538.033 453.7C537.878 453.964 537.628 454.16 537.333 454.248C537.038 454.337 536.72 454.31 536.444 454.175C536.187 454.006 536.005 453.747 535.934 453.45C535.864 453.153 535.911 452.84 536.065 452.576C536.219 452.312 536.469 452.116 536.764 452.028C537.059 451.94 537.378 451.966 537.654 452.101Z" fill="#FDCC07"/>
<path d="M542.413 443.948C542.669 444.117 542.852 444.376 542.922 444.673C542.992 444.97 542.946 445.282 542.791 445.546C542.637 445.81 542.387 446.006 542.092 446.095C541.797 446.183 541.479 446.157 541.202 446.021C540.946 445.852 540.764 445.593 540.693 445.296C540.623 444.999 540.669 444.687 540.824 444.422C540.978 444.158 541.228 443.962 541.523 443.874C541.818 443.786 542.136 443.812 542.413 443.948Z" fill="#FDCC07"/>
<path d="M547.172 435.794C547.429 435.963 547.611 436.222 547.682 436.519C547.752 436.816 547.705 437.128 547.551 437.392C547.397 437.657 547.147 437.853 546.852 437.941C546.556 438.029 546.238 438.003 545.962 437.867C545.705 437.698 545.523 437.439 545.453 437.142C545.383 436.845 545.429 436.533 545.583 436.269C545.738 436.005 545.988 435.809 546.283 435.72C546.578 435.632 546.896 435.658 547.172 435.794Z" fill="#FDCC07"/>
<path d="M551.932 427.64C552.189 427.809 552.371 428.068 552.441 428.365C552.512 428.662 552.465 428.975 552.311 429.239C552.157 429.503 551.906 429.699 551.611 429.787C551.316 429.875 550.998 429.849 550.722 429.714C550.573 429.641 550.442 429.539 550.335 429.413C550.228 429.288 550.148 429.143 550.1 428.986C550.052 428.829 550.037 428.664 550.056 428.501C550.075 428.338 550.128 428.181 550.21 428.039C550.293 427.897 550.405 427.774 550.538 427.676C550.671 427.578 550.823 427.509 550.984 427.471C551.145 427.434 551.313 427.43 551.476 427.459C551.639 427.488 551.794 427.55 551.932 427.64Z" fill="#FDCC07"/>
<path d="M556.691 419.486C556.948 419.655 557.13 419.915 557.2 420.212C557.271 420.508 557.224 420.821 557.07 421.085C556.916 421.349 556.665 421.545 556.37 421.633C556.075 421.722 555.757 421.695 555.481 421.56C555.224 421.391 555.042 421.132 554.972 420.835C554.901 420.538 554.948 420.225 555.102 419.961C555.256 419.697 555.506 419.501 555.801 419.413C556.097 419.325 556.415 419.351 556.691 419.486Z" fill="#FDCC07"/>
<path d="M526.358 402.165C526.615 402.334 526.797 402.593 526.867 402.89C526.938 403.187 526.891 403.499 526.737 403.763C526.583 404.027 526.332 404.223 526.037 404.312C525.742 404.4 525.424 404.373 525.148 404.238C524.891 404.069 524.709 403.81 524.639 403.513C524.568 403.216 524.615 402.904 524.769 402.639C524.923 402.375 525.173 402.179 525.468 402.091C525.764 402.003 526.082 402.029 526.358 402.165Z" fill="#FDCC07"/>
<path d="M531.118 394.011C531.257 394.091 531.378 394.198 531.475 394.325C531.572 394.451 531.643 394.596 531.683 394.75C531.724 394.903 531.733 395.064 531.711 395.221C531.689 395.378 531.636 395.53 531.555 395.667C531.474 395.804 531.366 395.924 531.238 396.02C531.109 396.116 530.963 396.186 530.808 396.226C530.652 396.266 530.49 396.276 530.331 396.254C530.172 396.232 530.019 396.18 529.88 396.099C529.623 395.93 529.441 395.671 529.371 395.374C529.301 395.077 529.347 394.765 529.501 394.501C529.656 394.237 529.906 394.041 530.201 393.952C530.496 393.864 530.814 393.89 531.09 394.026L531.118 394.011Z" fill="#FDCC07"/>
<path d="M535.59 388.055C536.237 387.883 536.621 387.226 536.447 386.586C536.274 385.946 535.609 385.566 534.962 385.738C534.315 385.909 533.932 386.567 534.105 387.207C534.278 387.847 534.943 388.226 535.59 388.055Z" fill="#FDCC07"/>
<path d="M540.636 377.703C540.893 377.872 541.075 378.131 541.145 378.428C541.216 378.725 541.169 379.038 541.015 379.302C540.861 379.566 540.611 379.762 540.315 379.85C540.02 379.938 539.702 379.912 539.426 379.777C539.277 379.704 539.146 379.602 539.039 379.477C538.932 379.351 538.852 379.206 538.804 379.049C538.756 378.892 538.741 378.727 538.76 378.564C538.779 378.402 538.832 378.244 538.915 378.102C538.997 377.96 539.109 377.837 539.242 377.739C539.375 377.641 539.527 377.572 539.688 377.534C539.849 377.497 540.017 377.493 540.18 377.522C540.343 377.551 540.498 377.613 540.636 377.703Z" fill="#FDCC07"/>
<path d="M545.396 369.55C545.545 369.622 545.676 369.725 545.783 369.85C545.89 369.975 545.97 370.12 546.018 370.277C546.066 370.434 546.081 370.599 546.062 370.762C546.043 370.925 545.99 371.082 545.907 371.224C545.825 371.366 545.713 371.489 545.58 371.587C545.447 371.685 545.295 371.754 545.134 371.792C544.973 371.829 544.805 371.834 544.642 371.804C544.479 371.775 544.324 371.714 544.186 371.623C543.929 371.454 543.747 371.195 543.677 370.898C543.606 370.601 543.653 370.289 543.807 370.024C543.961 369.76 544.211 369.564 544.507 369.476C544.802 369.388 545.12 369.414 545.396 369.55Z" fill="#FDCC07"/>
<path d="M549.868 363.594C550.515 363.422 550.899 362.765 550.726 362.125C550.552 361.485 549.888 361.105 549.241 361.277C548.594 361.448 548.21 362.106 548.383 362.746C548.557 363.385 549.221 363.765 549.868 363.594Z" fill="#FDCC07"/>
<path d="M554.915 353.242C555.171 353.411 555.353 353.67 555.424 353.967C555.494 354.264 555.448 354.576 555.293 354.84C555.139 355.105 554.889 355.301 554.594 355.389C554.299 355.477 553.981 355.451 553.704 355.315C553.448 355.146 553.266 354.887 553.195 354.59C553.125 354.293 553.171 353.981 553.326 353.717C553.48 353.453 553.73 353.256 554.025 353.168C554.32 353.08 554.638 353.106 554.915 353.242Z" fill="#FDCC07"/>
<path d="M559.674 345.088C559.931 345.257 560.113 345.517 560.184 345.813C560.254 346.11 560.207 346.423 560.053 346.687C559.899 346.951 559.649 347.147 559.354 347.235C559.058 347.324 558.74 347.297 558.464 347.162C558.207 346.993 558.025 346.734 557.955 346.437C557.885 346.14 557.931 345.827 558.085 345.563C558.24 345.299 558.49 345.103 558.785 345.015C559.08 344.927 559.398 344.953 559.674 345.088Z" fill="#FDCC07"/>
<path d="M564.147 339.132C564.794 338.961 565.177 338.303 565.004 337.663C564.831 337.024 564.166 336.644 563.519 336.815C562.872 336.987 562.488 337.644 562.662 338.284C562.835 338.924 563.5 339.304 564.147 339.132Z" fill="#FDCC07"/>
<path d="M569.193 328.781C569.341 328.854 569.473 328.956 569.58 329.081C569.687 329.206 569.767 329.352 569.815 329.508C569.863 329.665 569.878 329.83 569.859 329.993C569.84 330.156 569.787 330.313 569.704 330.455C569.621 330.597 569.51 330.721 569.377 330.818C569.244 330.916 569.092 330.986 568.931 331.023C568.77 331.06 568.602 331.065 568.439 331.036C568.276 331.007 568.121 330.945 567.983 330.854C567.726 330.685 567.544 330.426 567.473 330.129C567.403 329.832 567.45 329.52 567.604 329.256C567.758 328.992 568.008 328.795 568.303 328.707C568.599 328.619 568.917 328.645 569.193 328.781Z" fill="#FDCC07"/>
<path d="M573.952 320.627C574.209 320.796 574.391 321.055 574.462 321.352C574.532 321.649 574.485 321.961 574.331 322.225C574.177 322.49 573.927 322.686 573.632 322.774C573.337 322.862 573.018 322.836 572.742 322.7C572.594 322.627 572.462 322.525 572.355 322.4C572.248 322.275 572.168 322.13 572.12 321.973C572.072 321.816 572.057 321.651 572.076 321.488C572.095 321.325 572.148 321.168 572.231 321.026C572.314 320.884 572.425 320.76 572.558 320.663C572.691 320.565 572.843 320.495 573.004 320.458C573.166 320.421 573.333 320.416 573.496 320.445C573.659 320.474 573.815 320.536 573.952 320.627Z" fill="#FDCC07"/>
<path d="M578.425 314.671C579.072 314.5 579.456 313.842 579.282 313.202C579.109 312.562 578.444 312.183 577.797 312.354C577.15 312.525 576.766 313.183 576.94 313.823C577.113 314.463 577.778 314.843 578.425 314.671Z" fill="#FDCC07"/>
<path d="M536.176 410.133C536.823 409.961 537.207 409.304 537.033 408.664C536.86 408.024 536.195 407.644 535.548 407.816C534.901 407.987 534.517 408.645 534.691 409.285C534.864 409.924 535.529 410.304 536.176 410.133Z" fill="#FDCC07"/>
<path d="M541.21 399.792C541.466 399.961 541.648 400.221 541.719 400.518C541.789 400.814 541.742 401.127 541.588 401.391C541.434 401.655 541.184 401.851 540.889 401.939C540.594 402.028 540.276 402.001 539.999 401.866C539.743 401.697 539.56 401.438 539.49 401.141C539.42 400.844 539.466 400.531 539.621 400.267C539.775 400.003 540.025 399.807 540.32 399.719C540.615 399.631 540.933 399.657 541.21 399.792Z" fill="#FDCC07"/>
<path d="M545.991 391.633C546.248 391.802 546.43 392.061 546.501 392.358C546.571 392.655 546.524 392.967 546.37 393.231C546.216 393.495 545.966 393.691 545.671 393.78C545.376 393.868 545.058 393.841 544.781 393.706C544.633 393.633 544.501 393.531 544.394 393.406C544.287 393.281 544.207 393.135 544.159 392.978C544.111 392.821 544.096 392.656 544.116 392.494C544.135 392.331 544.187 392.174 544.27 392.032C544.353 391.89 544.464 391.766 544.597 391.668C544.73 391.571 544.882 391.501 545.043 391.464C545.205 391.426 545.372 391.422 545.535 391.451C545.698 391.48 545.854 391.542 545.991 391.633Z" fill="#FDCC07"/>
<path d="M550.454 385.672C551.101 385.5 551.485 384.842 551.312 384.203C551.138 383.563 550.473 383.183 549.827 383.354C549.18 383.526 548.796 384.184 548.969 384.823C549.142 385.463 549.807 385.843 550.454 385.672Z" fill="#FDCC07"/>
<path d="M555.51 375.325C555.767 375.494 555.949 375.753 556.02 376.05C556.09 376.347 556.043 376.66 555.889 376.924C555.735 377.188 555.485 377.384 555.19 377.472C554.894 377.56 554.576 377.534 554.3 377.399C554.043 377.23 553.861 376.97 553.791 376.673C553.72 376.377 553.767 376.064 553.921 375.8C554.075 375.536 554.326 375.34 554.621 375.252C554.916 375.163 555.234 375.19 555.51 375.325Z" fill="#FDCC07"/>
<path d="M560.269 367.171C560.418 367.244 560.549 367.346 560.656 367.472C560.763 367.597 560.843 367.742 560.891 367.899C560.939 368.056 560.954 368.221 560.935 368.384C560.916 368.547 560.863 368.704 560.78 368.846C560.698 368.988 560.586 369.111 560.453 369.209C560.32 369.307 560.168 369.376 560.007 369.414C559.846 369.451 559.678 369.455 559.515 369.426C559.352 369.397 559.197 369.335 559.059 369.245C558.802 369.076 558.62 368.817 558.55 368.52C558.479 368.223 558.526 367.91 558.68 367.646C558.834 367.382 559.084 367.186 559.38 367.098C559.675 367.01 559.993 367.036 560.269 367.171Z" fill="#FDCC07"/>
<path d="M565.029 359.018C565.286 359.186 565.468 359.446 565.538 359.743C565.608 360.04 565.562 360.352 565.408 360.616C565.253 360.88 565.003 361.076 564.708 361.165C564.413 361.253 564.095 361.226 563.819 361.091C563.562 360.922 563.38 360.663 563.309 360.366C563.239 360.069 563.286 359.757 563.44 359.492C563.594 359.228 563.844 359.032 564.139 358.944C564.435 358.856 564.753 358.882 565.029 359.018Z" fill="#FDCC07"/>
<path d="M569.789 350.864C570.045 351.033 570.227 351.292 570.298 351.589C570.368 351.886 570.322 352.198 570.167 352.462C570.013 352.727 569.763 352.923 569.468 353.011C569.173 353.099 568.855 353.073 568.578 352.937C568.322 352.768 568.14 352.509 568.069 352.212C567.999 351.915 568.045 351.603 568.2 351.339C568.354 351.075 568.604 350.879 568.899 350.79C569.194 350.702 569.512 350.728 569.789 350.864Z" fill="#FDCC07"/>
<path d="M574.547 342.71C574.696 342.783 574.828 342.885 574.935 343.01C575.042 343.136 575.122 343.281 575.169 343.438C575.217 343.595 575.232 343.76 575.213 343.923C575.194 344.085 575.142 344.243 575.059 344.384C574.976 344.526 574.865 344.65 574.731 344.748C574.598 344.845 574.447 344.915 574.285 344.953C574.124 344.99 573.957 344.994 573.794 344.965C573.63 344.936 573.475 344.874 573.337 344.784C573.08 344.615 572.898 344.355 572.828 344.058C572.758 343.762 572.804 343.449 572.958 343.185C573.113 342.921 573.363 342.725 573.658 342.637C573.953 342.548 574.271 342.575 574.547 342.71Z" fill="#FDCC07"/>
<path d="M579.307 334.557C579.564 334.725 579.746 334.985 579.816 335.282C579.887 335.579 579.84 335.891 579.686 336.155C579.532 336.419 579.282 336.615 578.986 336.704C578.691 336.792 578.373 336.765 578.097 336.63C577.84 336.461 577.658 336.202 577.588 335.905C577.517 335.608 577.564 335.295 577.718 335.031C577.872 334.767 578.122 334.571 578.418 334.483C578.713 334.395 579.031 334.421 579.307 334.557Z" fill="#FDCC07"/>
<path d="M584.096 326.395C584.353 326.564 584.535 326.823 584.605 327.12C584.676 327.417 584.629 327.729 584.475 327.993C584.321 328.257 584.071 328.454 583.776 328.542C583.48 328.63 583.162 328.604 582.886 328.468C582.629 328.299 582.447 328.04 582.377 327.743C582.306 327.446 582.353 327.134 582.507 326.87C582.661 326.606 582.912 326.409 583.207 326.321C583.502 326.233 583.82 326.259 584.096 326.395Z" fill="#FDCC07"/>
<path d="M588.826 318.249C589.083 318.418 589.265 318.677 589.336 318.974C589.406 319.271 589.359 319.583 589.205 319.848C589.051 320.112 588.801 320.308 588.506 320.396C588.211 320.484 587.892 320.458 587.616 320.322C587.468 320.25 587.336 320.147 587.229 320.022C587.122 319.897 587.042 319.752 586.994 319.595C586.946 319.438 586.931 319.273 586.95 319.11C586.969 318.947 587.022 318.79 587.105 318.648C587.188 318.506 587.299 318.383 587.432 318.285C587.565 318.187 587.717 318.118 587.878 318.08C588.04 318.043 588.207 318.038 588.37 318.067C588.533 318.097 588.688 318.158 588.826 318.249Z" fill="#FDCC07"/>
<path d="M546.571 413.72C546.848 413.879 547.05 414.14 547.132 414.446C547.214 414.753 547.17 415.079 547.01 415.352C546.849 415.626 546.585 415.826 546.275 415.907C545.966 415.989 545.636 415.945 545.359 415.786C545.082 415.627 544.88 415.366 544.798 415.06C544.716 414.753 544.76 414.427 544.921 414.153C545.082 413.88 545.346 413.68 545.655 413.599C545.965 413.517 546.294 413.561 546.571 413.72Z" fill="#FDCC07"/>
<path d="M551.339 405.564C551.616 405.723 551.818 405.984 551.9 406.291C551.982 406.597 551.938 406.923 551.777 407.197C551.616 407.471 551.352 407.67 551.043 407.751C550.733 407.833 550.404 407.789 550.127 407.63C549.99 407.551 549.869 407.447 549.773 407.322C549.677 407.197 549.606 407.055 549.566 406.904C549.525 406.752 549.515 406.594 549.536 406.439C549.557 406.283 549.609 406.133 549.688 405.998C549.768 405.862 549.874 405.743 550 405.648C550.126 405.553 550.27 405.483 550.423 405.443C550.576 405.402 550.736 405.392 550.893 405.413C551.05 405.434 551.202 405.485 551.339 405.564Z" fill="#FDCC07"/>
<path d="M556.098 397.41C556.375 397.569 556.576 397.831 556.659 398.137C556.741 398.443 556.697 398.769 556.536 399.043C556.375 399.317 556.111 399.516 555.801 399.598C555.492 399.679 555.162 399.635 554.885 399.476C554.608 399.317 554.407 399.056 554.325 398.75C554.242 398.444 554.286 398.118 554.447 397.844C554.608 397.57 554.872 397.37 555.182 397.289C555.491 397.208 555.821 397.251 556.098 397.41Z" fill="#FDCC07"/>
<path d="M560.857 389.257C561.134 389.416 561.336 389.677 561.418 389.983C561.501 390.289 561.456 390.615 561.296 390.889C561.135 391.163 560.871 391.363 560.561 391.444C560.252 391.525 559.922 391.482 559.645 391.323C559.368 391.164 559.166 390.902 559.084 390.596C559.002 390.29 559.046 389.964 559.207 389.69C559.368 389.416 559.632 389.217 559.941 389.135C560.251 389.054 560.58 389.098 560.857 389.257Z" fill="#FDCC07"/>
<path d="M565.623 381.125C565.829 381.243 565.996 381.419 566.101 381.63C566.207 381.842 566.246 382.079 566.215 382.313C566.184 382.547 566.084 382.766 565.926 382.943C565.769 383.12 565.563 383.248 565.332 383.309C565.102 383.37 564.859 383.362 564.633 383.286C564.408 383.21 564.21 383.07 564.065 382.883C563.919 382.696 563.834 382.47 563.818 382.235C563.803 382 563.858 381.765 563.977 381.561C564.055 381.425 564.16 381.306 564.286 381.21C564.411 381.114 564.555 381.044 564.708 381.003C564.861 380.963 565.021 380.952 565.178 380.973C565.335 380.994 565.486 381.046 565.623 381.125Z" fill="#FDCC07"/>
<path d="M570.374 372.942C570.58 373.06 570.747 373.235 570.852 373.447C570.958 373.658 570.997 373.896 570.966 374.13C570.935 374.363 570.835 374.583 570.678 374.76C570.521 374.937 570.314 375.064 570.084 375.125C569.853 375.186 569.61 375.178 569.384 375.103C569.159 375.027 568.961 374.887 568.816 374.7C568.671 374.513 568.585 374.287 568.569 374.052C568.554 373.817 568.609 373.582 568.728 373.378C568.888 373.104 569.151 372.905 569.46 372.823C569.768 372.741 570.097 372.784 570.374 372.942Z" fill="#FDCC07"/>
<path d="M575.134 364.788C575.34 364.906 575.507 365.082 575.612 365.293C575.718 365.504 575.757 365.742 575.726 365.976C575.695 366.209 575.595 366.429 575.437 366.606C575.28 366.783 575.074 366.91 574.843 366.971C574.613 367.032 574.37 367.025 574.144 366.949C573.918 366.873 573.72 366.733 573.575 366.546C573.43 366.359 573.345 366.133 573.329 365.898C573.313 365.663 573.369 365.428 573.488 365.224C573.648 364.95 573.911 364.751 574.22 364.669C574.528 364.587 574.857 364.63 575.134 364.788Z" fill="#FDCC07"/>
<path d="M579.893 356.634C580.099 356.752 580.265 356.928 580.371 357.139C580.476 357.351 580.516 357.588 580.485 357.822C580.454 358.056 580.353 358.275 580.196 358.452C580.039 358.63 579.832 358.757 579.602 358.818C579.372 358.879 579.129 358.871 578.903 358.795C578.677 358.719 578.479 358.579 578.334 358.392C578.189 358.205 578.103 357.98 578.088 357.744C578.072 357.509 578.128 357.275 578.247 357.071C578.407 356.797 578.67 356.597 578.978 356.515C579.287 356.434 579.616 356.476 579.893 356.634Z" fill="#FDCC07"/>
<path d="M584.652 348.481C584.859 348.599 585.025 348.774 585.131 348.986C585.236 349.197 585.276 349.435 585.245 349.669C585.214 349.902 585.113 350.122 584.956 350.299C584.799 350.476 584.592 350.603 584.362 350.664C584.132 350.725 583.888 350.717 583.663 350.642C583.437 350.566 583.239 350.426 583.094 350.239C582.949 350.051 582.863 349.826 582.848 349.591C582.832 349.356 582.887 349.121 583.007 348.917C583.166 348.643 583.429 348.444 583.738 348.362C584.047 348.28 584.376 348.323 584.652 348.481Z" fill="#FDCC07"/>
<path d="M589.412 340.327C589.618 340.445 589.785 340.62 589.89 340.832C589.996 341.043 590.035 341.281 590.004 341.515C589.973 341.748 589.873 341.968 589.716 342.145C589.559 342.322 589.352 342.449 589.122 342.51C588.891 342.571 588.648 342.563 588.422 342.488C588.197 342.412 587.999 342.272 587.854 342.085C587.709 341.898 587.623 341.672 587.607 341.437C587.592 341.202 587.647 340.967 587.766 340.763C587.926 340.489 588.189 340.29 588.498 340.208C588.807 340.126 589.135 340.169 589.412 340.327Z" fill="#FDCC07"/>
<path d="M556.691 419.486C556.948 419.655 557.13 419.915 557.2 420.212C557.271 420.508 557.224 420.821 557.07 421.085C556.916 421.349 556.665 421.545 556.37 421.633C556.075 421.722 555.757 421.695 555.481 421.56C555.224 421.391 555.042 421.132 554.972 420.835C554.901 420.538 554.948 420.225 555.102 419.961C555.256 419.697 555.506 419.501 555.801 419.413C556.097 419.325 556.415 419.351 556.691 419.486Z" fill="#FDCC07"/>
<path d="M561.445 411.311C561.702 411.48 561.884 411.739 561.954 412.036C562.024 412.333 561.978 412.645 561.824 412.909C561.669 413.173 561.419 413.369 561.124 413.458C560.829 413.546 560.511 413.519 560.235 413.384C559.978 413.215 559.796 412.956 559.725 412.659C559.655 412.362 559.702 412.05 559.856 411.785C560.01 411.521 560.26 411.325 560.555 411.237C560.851 411.149 561.169 411.175 561.445 411.311Z" fill="#FDCC07"/>
<path d="M565.923 405.377C566.57 405.205 566.954 404.548 566.781 403.908C566.607 403.268 565.942 402.888 565.295 403.06C564.648 403.231 564.265 403.889 564.438 404.529C564.611 405.169 565.276 405.548 565.923 405.377Z" fill="#FDCC07"/>
<path d="M570.969 395.025C571.226 395.194 571.408 395.453 571.479 395.75C571.549 396.047 571.502 396.359 571.348 396.623C571.194 396.888 570.944 397.084 570.649 397.172C570.353 397.26 570.035 397.234 569.759 397.098C569.502 396.929 569.32 396.67 569.25 396.373C569.179 396.076 569.226 395.764 569.38 395.5C569.535 395.236 569.785 395.039 570.08 394.951C570.375 394.863 570.693 394.889 570.969 395.025Z" fill="#FDCC07"/>
<path d="M575.729 386.871C575.986 387.04 576.168 387.3 576.238 387.597C576.309 387.893 576.262 388.206 576.108 388.47C575.954 388.734 575.704 388.93 575.408 389.018C575.113 389.107 574.795 389.08 574.519 388.945C574.262 388.776 574.08 388.517 574.01 388.22C573.939 387.923 573.986 387.61 574.14 387.346C574.294 387.082 574.544 386.886 574.84 386.798C575.135 386.71 575.453 386.736 575.729 386.871Z" fill="#FDCC07"/>
<path d="M580.201 380.916C580.848 380.744 581.232 380.086 581.059 379.447C580.885 378.807 580.221 378.427 579.574 378.598C578.927 378.77 578.543 379.428 578.716 380.067C578.89 380.707 579.554 381.087 580.201 380.916Z" fill="#FDCC07"/>
<path d="M585.248 370.564C585.504 370.733 585.686 370.992 585.757 371.289C585.827 371.586 585.781 371.898 585.626 372.163C585.472 372.427 585.222 372.623 584.927 372.711C584.632 372.799 584.314 372.773 584.037 372.637C583.781 372.468 583.599 372.209 583.528 371.912C583.458 371.615 583.504 371.303 583.659 371.039C583.813 370.775 584.063 370.579 584.358 370.49C584.653 370.402 584.971 370.429 585.248 370.564Z" fill="#FDCC07"/>
<path d="M590.007 362.41C590.264 362.579 590.446 362.838 590.517 363.135C590.587 363.432 590.54 363.745 590.386 364.009C590.232 364.273 589.982 364.469 589.687 364.557C589.391 364.645 589.073 364.619 588.797 364.484C588.54 364.315 588.358 364.055 588.288 363.758C588.218 363.461 588.264 363.149 588.418 362.885C588.573 362.621 588.823 362.425 589.118 362.337C589.413 362.248 589.731 362.275 590.007 362.41Z" fill="#FDCC07"/>
<path d="M435.002 420.194L378.804 516.491C378.126 517.651 377.686 518.933 377.508 520.262C377.331 521.592 377.42 522.942 377.771 524.237C378.122 525.533 378.728 526.747 379.553 527.81C380.379 528.874 381.408 529.766 382.582 530.436C383.756 531.107 385.051 531.542 386.395 531.717C387.739 531.893 389.105 531.805 390.414 531.457C391.724 531.11 392.951 530.512 394.026 529.695C395.102 528.879 396.004 527.861 396.681 526.699L452.938 430.402C453.634 429.213 454.08 427.897 454.249 426.533C454.419 425.17 454.308 423.786 453.923 422.466C453.539 421.146 452.889 419.916 452.013 418.85C451.136 417.784 450.051 416.905 448.822 416.264C446.454 415.014 443.687 414.726 441.107 415.46C438.527 416.193 436.338 417.891 435.002 420.194Z" fill="#70C6D1"/>
<path d="M617.284 287.586C618.513 288.28 619.97 288.466 621.337 288.103C622.705 287.741 623.872 286.86 624.586 285.65L639.04 260.899C639.224 260.583 639.469 260.306 639.761 260.084C640.053 259.862 640.387 259.699 640.743 259.604C641.099 259.51 641.471 259.486 641.836 259.534C642.201 259.582 642.554 259.7 642.873 259.883C643.514 260.252 643.982 260.857 644.174 261.566C644.366 262.275 644.267 263.03 643.898 263.667L590.101 355.831C589.692 356.531 589.426 357.304 589.32 358.106C589.213 358.908 589.267 359.722 589.479 360.503C589.69 361.284 590.055 362.016 590.553 362.658C591.05 363.299 591.671 363.837 592.379 364.242C593.81 365.058 595.51 365.279 597.106 364.856C598.702 364.434 600.063 363.401 600.889 361.986L680.951 224.815C681.333 224.161 681.581 223.439 681.681 222.689C681.78 221.94 681.73 221.179 681.532 220.449C681.334 219.719 680.993 219.035 680.528 218.435C680.063 217.836 679.483 217.333 678.821 216.955C677.484 216.192 675.895 215.985 674.403 216.38C672.911 216.776 671.64 217.741 670.867 219.063L659.308 238.866C658.898 239.546 658.237 240.041 657.464 240.246C656.692 240.451 655.869 240.349 655.171 239.963C654.484 239.558 653.983 238.904 653.776 238.14C653.569 237.376 653.672 236.562 654.063 235.871L689.658 174.89C690.349 173.704 690.535 172.295 690.177 170.972C689.819 169.65 688.945 168.522 687.747 167.836C686.549 167.159 685.129 166.978 683.796 167.331C682.463 167.684 681.326 168.544 680.63 169.722L615.321 280.341C614.613 281.56 614.422 283.007 614.79 284.364C615.158 285.722 616.055 286.881 617.284 287.586Z" fill="#FDBA12"/>
<path d="M492.281 423.073C495.491 422.223 497.396 418.959 496.536 415.784C495.676 412.609 492.376 410.725 489.167 411.576C485.957 412.427 484.052 415.69 484.912 418.865C485.772 422.04 489.071 423.924 492.281 423.073Z" fill="#91C653"/>
<path d="M595.084 193.35C593.316 192.339 591.364 191.683 589.34 191.418C587.316 191.154 585.259 191.286 583.286 191.809C581.314 192.332 579.465 193.234 577.846 194.464C576.227 195.694 574.868 197.228 573.849 198.978C573.156 200.166 572.234 201.207 571.134 202.042C570.034 202.876 568.779 203.489 567.44 203.844C566.101 204.199 564.705 204.289 563.33 204.11C561.956 203.931 560.631 203.485 559.431 202.8L556.613 201.093C555.413 200.408 554.361 199.497 553.517 198.41C552.673 197.323 552.055 196.082 551.696 194.759C551.338 193.435 551.246 192.055 551.428 190.696C551.609 189.338 552.059 188.028 552.752 186.842L644.223 30.121C645.708 27.5877 648.147 25.7398 651.007 24.982C653.866 24.2241 656.913 24.6179 659.48 26.0774C662.046 27.5437 663.919 29.9583 664.686 32.7902C665.454 35.6221 665.052 38.6394 663.571 41.1787L639.441 82.5788C639.006 83.3216 638.723 84.142 638.609 84.9932C638.495 85.8443 638.552 86.7092 638.776 87.5385C639.001 88.3678 639.389 89.1452 639.918 89.8258C640.447 90.5065 641.107 91.0772 641.859 91.5052C642.61 91.9357 643.44 92.2154 644.3 92.3283C645.161 92.4411 646.035 92.3847 646.873 92.1625C647.712 91.9403 648.498 91.5566 649.186 91.0334C649.874 90.5101 650.451 89.8576 650.884 89.1133L741.532 -66.2754C742.164 -67.361 743.007 -68.3125 744.012 -69.0756C745.017 -69.8387 746.164 -70.3985 747.388 -70.7228C748.612 -71.0471 749.888 -71.1297 751.144 -70.9657C752.4 -70.8018 753.611 -70.3946 754.708 -69.7675C755.806 -69.1407 756.768 -68.3062 757.54 -67.3114C758.312 -66.3167 758.878 -65.1812 759.206 -63.97C759.535 -62.7587 759.618 -61.4954 759.453 -60.2522C759.287 -59.009 758.875 -57.8102 758.241 -56.7244L664.972 103.062C663.236 106.053 662.768 109.603 663.67 112.935C664.573 116.267 666.773 119.109 669.789 120.841C672.805 122.573 675.005 125.416 675.907 128.748C676.81 132.079 676.342 135.629 674.605 138.621L595.443 274.239C594.608 275.673 593.495 276.93 592.168 277.938C590.841 278.946 589.326 279.686 587.709 280.114C586.093 280.543 584.407 280.651 582.748 280.435C581.09 280.218 579.49 279.68 578.042 278.851C575.123 277.179 572.993 274.431 572.12 271.208C571.247 267.985 571.702 264.552 573.385 261.66L600.82 214.274C602.858 210.745 603.399 206.562 602.324 202.639C601.249 198.717 598.645 195.377 595.084 193.35Z" fill="#F2C94C"/>
<path d="M576.205 407.548L552.782 447.675C552.386 448.346 552.129 449.087 552.024 449.857C551.92 450.627 551.971 451.409 552.174 452.159C552.377 452.909 552.728 453.612 553.208 454.227C553.687 454.842 554.285 455.356 554.967 455.741C555.645 456.133 556.395 456.388 557.173 456.491C557.951 456.594 558.742 456.544 559.5 456.343C560.258 456.142 560.969 455.794 561.59 455.32C562.212 454.846 562.733 454.254 563.122 453.58L586.544 413.453C586.944 412.768 587.2 412.01 587.297 411.225C587.394 410.439 587.329 409.643 587.108 408.883C586.886 408.123 586.512 407.415 586.008 406.801C585.503 406.187 584.879 405.68 584.172 405.311C582.81 404.587 581.217 404.415 579.73 404.833C578.243 405.25 576.978 406.224 576.205 407.548Z" fill="#EB5757"/>
</g>
<defs>
<clipPath id="clip0_2731_96375">
<rect width="590" height="454" fill="white"/>
</clipPath>
</defs>
</svg>
