<svg width="222" height="377" viewBox="0 0 222 377" fill="none" xmlns="http://www.w3.org/2000/svg">
<g clip-path="url(#clip0_2924_141054)">
<path d="M-6.22161 128.895L-31.8535 164.661C-33.7272 167.278 -34.4852 170.532 -33.961 173.708C-33.4369 176.884 -31.6734 179.722 -29.058 181.598C-26.4407 183.472 -23.1867 184.23 -20.0108 183.706C-16.835 183.182 -13.9971 181.418 -12.1208 178.803L13.5111 143.037C14.4628 141.711 15.1368 140.206 15.4931 138.613C15.8494 137.02 15.8805 135.372 15.5845 133.766C15.2885 132.161 14.6716 130.632 13.7706 129.271C12.8697 127.91 11.7031 126.744 10.3411 125.845C7.72257 124.11 4.5331 123.458 1.44391 124.027C-1.64528 124.596 -4.39317 126.341 -6.22161 128.895Z" fill="#FDCC07"/>
<path d="M-102.309 419.779C-100.067 421.369 -97.2885 422.01 -94.5767 421.562C-91.865 421.115 -89.4395 419.615 -87.8273 417.389L-55.1344 371.789C-54.7184 371.207 -54.1916 370.712 -53.5841 370.334C-52.9766 369.955 -52.3004 369.7 -51.5942 369.584C-50.8881 369.467 -50.1659 369.491 -49.469 369.655C-48.7721 369.818 -48.1143 370.117 -47.5332 370.534C-46.3648 371.377 -45.5775 372.648 -45.3429 374.069C-45.1083 375.491 -45.4455 376.947 -46.2811 378.121L-167.971 547.921C-168.896 549.211 -169.557 550.671 -169.918 552.217C-170.278 553.762 -170.331 555.364 -170.072 556.93C-169.814 558.496 -169.25 559.995 -168.411 561.343C-167.573 562.691 -166.478 563.861 -165.188 564.785C-162.58 566.653 -159.337 567.409 -156.172 566.886C-153.007 566.364 -150.179 564.606 -148.309 561.999L32.7931 309.279C33.6573 308.074 34.2754 306.71 34.6123 305.265C34.9492 303.82 34.9983 302.324 34.7567 300.86C34.5152 299.397 33.9877 297.995 33.2044 296.735C32.4212 295.475 31.3975 294.382 30.1918 293.518C27.7542 291.773 24.7232 291.066 21.765 291.555C18.8068 292.043 16.1635 293.686 14.4161 296.122L-11.7314 332.607C-12.653 333.857 -14.0261 334.698 -15.5584 334.951C-17.0906 335.204 -18.661 334.849 -19.9353 333.961C-21.1853 333.04 -22.0262 331.667 -22.2791 330.134C-22.532 328.602 -22.1769 327.032 -21.2894 325.757L59.2275 213.408C60.7906 211.221 61.4227 208.505 60.985 205.853C60.5474 203.201 59.0758 200.832 56.8931 199.264C54.7084 197.713 51.9998 197.088 49.3566 197.525C46.7134 197.961 44.3495 199.423 42.7788 201.593L-104.707 405.253C-106.31 407.499 -106.957 410.289 -106.508 413.011C-106.059 415.734 -104.549 418.168 -102.309 419.779Z" fill="#FDCC07"/>
</g>
<defs>
<clipPath id="clip0_2924_141054">
<rect width="222" height="377" fill="white"/>
</clipPath>
</defs>
</svg>
