<svg width="114" height="239" viewBox="0 0 114 239" fill="none" xmlns="http://www.w3.org/2000/svg">
<g clip-path="url(#clip0_2781_20964)">
<path d="M-72.6735 250.779C-70.4315 252.369 -67.6528 253.01 -64.941 252.562C-62.2293 252.115 -59.8037 250.615 -58.1916 248.389L-25.4987 202.789C-25.0827 202.207 -24.5559 201.712 -23.9484 201.334C-23.3409 200.955 -22.6647 200.7 -21.9585 200.584C-21.2524 200.467 -20.5301 200.491 -19.8332 200.655C-19.1364 200.818 -18.4786 201.117 -17.8975 201.534C-16.7291 202.377 -15.9417 203.648 -15.7071 205.069C-15.4725 206.491 -15.8098 207.947 -16.6453 209.121L-138.335 378.921C-139.26 380.211 -139.922 381.671 -140.282 383.217C-140.643 384.762 -140.695 386.364 -140.437 387.93C-140.178 389.496 -139.614 390.995 -138.776 392.343C-137.938 393.691 -136.842 394.861 -135.552 395.785C-132.944 397.653 -129.701 398.409 -126.536 397.886C-123.371 397.364 -120.543 395.606 -118.674 392.999L62.4289 140.279C63.293 139.074 63.9111 137.71 64.248 136.265C64.5849 134.82 64.634 133.324 64.3925 131.86C64.1509 130.397 63.6234 128.995 62.8402 127.735C62.0569 126.475 61.0332 125.382 59.8275 124.518C57.3899 122.773 54.3589 122.066 51.4007 122.555C48.4425 123.043 45.7992 124.686 44.0518 127.122L17.9043 163.607C16.9827 164.857 15.6096 165.698 14.0774 165.951C12.5451 166.204 10.9748 165.849 9.70041 164.961C8.45044 164.04 7.60951 162.667 7.35662 161.134C7.10372 159.602 7.45882 158.032 8.34635 156.757L88.8633 44.4076C90.4263 42.2214 91.0584 39.5045 90.6208 36.853C90.1831 34.2014 88.7115 31.8318 86.5289 30.2638C84.3441 28.7134 81.6355 28.0884 78.9923 28.5246C76.3491 28.9609 73.9852 30.4232 72.4146 32.5934L-75.071 236.253C-76.6739 238.499 -77.3217 241.289 -76.8723 244.011C-76.423 246.734 -74.9132 249.168 -72.6735 250.779Z" fill="#FDCC07"/>
</g>
<defs>
<clipPath id="clip0_2781_20964">
<rect width="113" height="239" fill="white" transform="translate(0.135742)"/>
</clipPath>
</defs>
</svg>
