<svg xmlns="http://www.w3.org/2000/svg" xmlns:xlink="http://www.w3.org/1999/xlink" width="24.335" height="24.335" viewBox="0 0 24.335 24.335"><defs><style>.a{fill:#fff;}.b{clip-path:url(#a);}</style><clipPath id="a"><rect class="a" width="24.335" height="24.335" transform="translate(0 0)"/></clipPath></defs><g transform="translate(-3378 -4149)"><path class="a" d="M34.128,27.677a6.251,6.251,0,1,0,6.251,6.251,6.253,6.253,0,0,0-6.251-6.251m0,10.306a4.055,4.055,0,1,1,4.055-4.055,4.056,4.056,0,0,1-4.055,4.055" transform="translate(3356.084 4127.242)"/><path class="a" d="M83.593,21.155A1.459,1.459,0,1,1,82.133,19.7a1.459,1.459,0,0,1,1.459,1.459" transform="translate(3314.578 4133.516)"/><g class="b" transform="translate(3378 4149)"><path class="a" d="M24.468,7.154A8.893,8.893,0,0,0,23.9,4.2a6.235,6.235,0,0,0-3.56-3.56A8.922,8.922,0,0,0,17.39.076C16.087.014,15.673,0,12.37,0S8.652.014,7.354.071A8.894,8.894,0,0,0,4.4.637,5.938,5.938,0,0,0,2.244,2.044,6,6,0,0,0,.842,4.2,8.923,8.923,0,0,0,.276,7.15C.214,8.452.2,8.866.2,12.17s.014,3.717.071,5.015a8.9,8.9,0,0,0,.566,2.952A6.23,6.23,0,0,0,4.4,23.7a8.912,8.912,0,0,0,2.952.566c1.3.057,1.711.071,5.015.071s3.717-.014,5.015-.071a8.884,8.884,0,0,0,2.952-.566,6.225,6.225,0,0,0,3.561-3.56,8.917,8.917,0,0,0,.566-2.952c.057-1.3.071-1.711.071-5.015s0-3.718-.062-5.015M22.277,17.09a6.671,6.671,0,0,1-.418,2.258,4.034,4.034,0,0,1-2.31,2.31,6.689,6.689,0,0,1-2.258.418c-1.284.057-1.669.071-4.915.071s-3.637-.014-4.916-.071A6.661,6.661,0,0,1,5.2,21.658a3.741,3.741,0,0,1-1.4-.908,3.784,3.784,0,0,1-.908-1.4,6.7,6.7,0,0,1-.418-2.258c-.057-1.283-.071-1.669-.071-4.915s.014-3.637.071-4.915A6.667,6.667,0,0,1,2.9,5.006a3.7,3.7,0,0,1,.913-1.4,3.779,3.779,0,0,1,1.4-.908,6.712,6.712,0,0,1,2.258-.418c1.283-.057,1.669-.071,4.915-.071s3.637.014,4.916.071a6.683,6.683,0,0,1,2.258.418,3.745,3.745,0,0,1,1.4.908,3.778,3.778,0,0,1,.908,1.4,6.7,6.7,0,0,1,.418,2.258c.057,1.283.071,1.668.071,4.915s-.014,3.627-.071,4.911" transform="translate(-0.157 0)"/></g></g></svg>