<svg width="30" height="30" viewBox="0 0 30 30" fill="none" xmlns="http://www.w3.org/2000/svg">
<path d="M15 30C23.2843 30 30 23.2843 30 15C30 6.71573 23.2843 0 15 0C6.71573 0 0 6.71573 0 15C0 23.2843 6.71573 30 15 30Z" fill="#FDCC07"/>
<path d="M29.9503 16.2212L22.1688 8.43967L16.3805 5.8418L10.3535 6.88553L6.31313 11.532L5.62958 16.5009L7.86604 21.5978L16.2188 29.9505C23.5302 29.3626 29.3612 23.5322 29.9503 16.2212Z" fill="#FDBA12"/>
<rect opacity="0.5" x="6" y="6" width="18" height="18" rx="9" fill="white"/>
<path opacity="0.5" fill-rule="evenodd" clip-rule="evenodd" d="M15 6V24C19.9706 24 24 19.9706 24 15C24 10.0294 19.9706 6 15 6Z" fill="#E5E5E5"/>
<path d="M15 5.27783C9.63908 5.27783 5.27777 9.63926 5.27777 15.0001C5.27777 20.3609 9.6392 24.7223 15 24.7223C20.3608 24.7223 24.7222 20.3609 24.7222 15.0001C24.7222 9.63926 20.3609 5.27783 15 5.27783ZM20.4946 14.394C20.4622 13.4209 20.3527 12.4904 20.1756 11.6213C21.8835 12.2944 23.0925 13.2826 23.4198 14.394H20.4946ZM19.2803 14.394H15.5051V10.7157C16.6839 10.7526 17.8061 10.9174 18.8183 11.1817C19.0751 12.1649 19.2374 13.2521 19.2803 14.394ZM15.5051 9.50197V6.55389C16.6575 6.8359 17.6854 8.06502 18.3788 9.82441C17.4797 9.64125 16.5149 9.52986 15.5051 9.50197ZM14.2929 6.61318V9.50895C13.3564 9.54539 12.4601 9.6535 11.6211 9.82447C12.2739 8.16844 13.2227 6.98221 14.2929 6.61318ZM14.2929 10.7238V14.394H10.7197C10.7626 13.252 10.9249 12.1649 11.1816 11.1816C12.1359 10.9325 13.188 10.7722 14.2929 10.7238ZM9.50537 14.394H6.58019C6.90744 13.2826 8.11646 12.2943 9.82435 11.6213C9.64728 12.4904 9.53777 13.4208 9.50537 14.394ZM9.50537 15.6061C9.53777 16.5792 9.64728 17.5097 9.82435 18.3788C8.11646 17.7057 6.9075 16.7175 6.58019 15.6061H9.50537ZM10.7197 15.6061H14.2929V19.2763C13.1878 19.2279 12.1357 19.0676 11.1816 18.8184C10.9249 17.8352 10.7626 16.748 10.7197 15.6061ZM14.2929 20.4912V23.3869C13.2227 23.018 12.2737 21.8317 11.6211 20.1757C12.4602 20.3466 13.3564 20.4547 14.2929 20.4912ZM15.5051 23.4462V20.4983C16.5149 20.4703 17.4796 20.359 18.3788 20.1758C17.6855 21.9351 16.6575 23.1642 15.5051 23.4462ZM15.5051 19.2844V15.6061H19.2802C19.2374 16.748 19.0751 17.8352 18.8183 18.8184C17.8062 19.0828 16.6839 19.2475 15.5051 19.2844ZM20.4946 15.6061H23.4198C23.0926 16.7175 21.8835 17.7058 20.1756 18.3788C20.3527 17.5097 20.4622 16.5793 20.4946 15.6061ZM22.8491 11.7129C22.0423 11.0904 21.0071 10.5717 19.8073 10.1927C19.4283 8.99285 18.9096 7.95762 18.287 7.15084C20.3403 8.01398 21.9861 9.65977 22.8491 11.7129ZM11.7128 7.15096C11.0904 7.95773 10.5716 8.99297 10.1926 10.1928C8.99279 10.5718 7.95756 11.0904 7.15078 11.713C8.01392 9.65977 9.65971 8.01398 11.7128 7.15096ZM7.1509 18.2872C7.95767 18.9097 8.99291 19.4285 10.1927 19.8074C10.5717 21.0073 11.0904 22.0425 11.7129 22.8493C9.65971 21.9861 8.01392 20.3404 7.1509 18.2872ZM18.2872 22.8492C18.9096 22.0424 19.4284 21.0071 19.8074 19.8073C21.0072 19.4283 22.0424 18.9097 22.8492 18.2871C21.9861 20.3404 20.3403 21.9861 18.2872 22.8492Z" fill="#333433"/>
<path d="M14.9999 5.27783C14.9549 5.27783 14.9102 5.27895 14.8653 5.27953V24.7206C14.9101 24.7212 14.9549 24.7223 14.9999 24.7223C20.3609 24.7223 24.7222 20.3609 24.7222 15.0001C24.7222 9.63932 20.3609 5.27783 14.9999 5.27783ZM22.849 11.7129C22.0423 11.0904 21.007 10.5717 19.8072 10.1927C19.4282 8.99285 18.9096 7.95762 18.287 7.15084C20.3402 8.01398 21.986 9.65977 22.849 11.7129ZM23.4198 14.394H20.4946C20.4622 13.4209 20.3527 12.4904 20.1756 11.6213C21.8835 12.2943 23.0924 13.2826 23.4198 14.394ZM15.505 6.55389C16.6574 6.8359 17.6853 8.06502 18.3788 9.82441C17.4796 9.64131 16.5148 9.52986 15.505 9.50191V6.55389ZM15.505 10.7157C16.6838 10.7526 17.8061 10.9174 18.8183 11.1817C19.075 12.1649 19.2373 13.2521 19.2802 14.394H15.505V10.7157ZM15.505 15.6061H19.2802C19.2373 16.748 19.075 17.8352 18.8183 18.8184C17.8061 19.0828 16.6838 19.2475 15.505 19.2844V15.6061ZM15.505 23.4462V20.4983C16.5148 20.4703 17.4796 20.359 18.3788 20.1758C17.6854 21.9351 16.6574 23.1642 15.505 23.4462ZM18.2871 22.8492C18.9096 22.0424 19.4283 21.0071 19.8073 19.8073C21.0072 19.4283 22.0424 18.9097 22.8492 18.2871C21.986 20.3404 20.3402 21.9861 18.2871 22.8492ZM20.1756 18.3789C20.3527 17.5098 20.4622 16.5792 20.4946 15.6062H23.4198C23.0924 16.7176 21.8835 17.7058 20.1756 18.3789Z" fill="#141414"/>
</svg>
