<svg width="872" height="139" viewBox="0 0 872 139" fill="none" xmlns="http://www.w3.org/2000/svg">
<rect x="178" y="10.5" width="421" height="22" rx="10" fill="#F2F2F2"/>
<rect x="366.103" y="39.5" width="232.897" height="22" rx="10" fill="#F2F2F2"/>
<rect x="432.58" y="66.5" width="24.5189" height="21" rx="10" fill="#F2F2F2"/>
<rect x="467.098" y="66.5" width="60.9507" height="21" rx="10" fill="#F2F2F2"/>
<rect x="538.049" y="66.5" width="60.9507" height="21" rx="10" fill="#F2F2F2"/>
<rect x="432.58" y="92.5" width="166.42" height="21" rx="10" fill="#F2F2F2"/>
<path d="M619 10C619 4.47715 623.477 0 629 0H862C867.523 0 872 4.47715 872 10V114C872 119.523 867.523 124 862 124H629C623.477 124 619 119.523 619 114V10Z" fill="#F2F2F2"/>
</svg>
