<svg xmlns="http://www.w3.org/2000/svg" width="21.657" height="20.697" viewBox="0 0 21.657 20.697"><defs><style>.a{fill:#f1f2f2;}</style></defs><path class="a" d="M189.079,49.862v8.009h-4.643V50.4c0-1.877-.67-3.158-2.352-3.158a2.541,2.541,0,0,0-2.381,1.7,3.144,3.144,0,0,0-.154,1.131v7.8h-4.645s.063-12.655,0-13.965h4.645v1.979c-.009.016-.022.031-.031.045h.031v-.045a4.611,4.611,0,0,1,4.185-2.308c3.055,0,5.344,2,5.344,6.284M170.05,37.175A2.419,2.419,0,1,0,169.989,42h.029a2.42,2.42,0,1,0,.032-4.825m-2.352,20.7h4.641V43.906H167.7Z" transform="translate(-167.422 -37.175)"/></svg>