<svg width="44" height="43" viewBox="0 0 44 43" fill="none" xmlns="http://www.w3.org/2000/svg">
<g clip-path="url(#clip0_3287_41266)">
<g clip-path="url(#clip1_3287_41266)">
<path d="M21.7147 42.6679C33.4718 42.6679 43.0027 33.1369 43.0027 21.3799C43.0027 9.62278 33.4718 0.0917969 21.7147 0.0917969C9.95762 0.0917969 0.426636 9.62278 0.426636 21.3799C0.426636 33.1369 9.95762 42.6679 21.7147 42.6679Z" fill="#F1595A"/>
<path d="M43.0028 21.3799C43.0028 20.6872 42.9685 20.0026 42.9038 19.3267L29.2706 6.61371L13.3575 35.7936L20.176 42.6121C20.6842 42.6485 21.1971 42.6679 21.7147 42.6679C33.4718 42.6679 43.0028 33.137 43.0028 21.3799Z" fill="#CB4B4C"/>
<path d="M28.6527 6.49487H14.7767C13.9929 6.49487 13.3575 7.13027 13.3575 7.91408V34.3742C13.3575 35.158 13.9929 35.7934 14.7767 35.7934H28.6527C29.4365 35.7934 30.0719 35.158 30.0719 34.3742V7.91408C30.0719 7.13027 29.4365 6.49487 28.6527 6.49487Z" fill="#333333"/>
<path d="M28.6524 6.49487H21.687V35.7934H28.6524C29.4362 35.7934 30.0716 35.158 30.0716 34.3742V7.91408C30.0716 7.13027 29.4363 6.49487 28.6524 6.49487Z" fill="#1A1A1A"/>
<path d="M28.6998 8.53217H14.7296V31.9823H28.6998V8.53217Z" fill="#8CC63F"/>
<path d="M28.6996 8.53217H21.687V31.9823H28.6996V8.53217Z" fill="#39B54A"/>
<path d="M21.7153 13.3903H17.6248V27.1236H21.7153V13.3903Z" fill="white"/>
<path d="M21.7153 20.243H17.6248V27.1234H21.7153V20.243Z" fill="#E0E0E0"/>
<path d="M21.7147 34.7681C22.2888 34.7681 22.7541 34.3027 22.7541 33.7286C22.7541 33.1545 22.2888 32.6891 21.7147 32.6891C21.1406 32.6891 20.6752 33.1545 20.6752 33.7286C20.6752 34.3027 21.1406 34.7681 21.7147 34.7681Z" fill="#1A1A1A"/>
<path d="M21.7147 32.6891C21.7053 32.6891 21.6963 32.6903 21.687 32.6906V34.7667C21.6963 34.767 21.7054 34.7681 21.7147 34.7681C22.2888 34.7681 22.7541 34.3027 22.7541 33.7287C22.7541 33.1547 22.2888 32.6891 21.7147 32.6891Z" fill="black"/>
<path d="M24.0576 26.2723L25.9128 24.4171L23.0443 21.5485L32.0429 21.5481L32.0428 18.9244L23.0567 18.9248L25.9639 16.0175L24.1087 14.1622L18.0281 20.2429L24.0576 26.2723Z" fill="#005C83"/>
<path d="M18.0281 20.2429L24.0576 26.2723L25.9128 24.4171L23.0443 21.5485L32.0429 21.5481L32.0428 20.2459L18.0281 20.2429Z" fill="#00263F"/>
</g>
</g>
<defs>
<clipPath id="clip0_3287_41266">
<rect width="42.5761" height="42.5761" fill="white" transform="translate(0.42627 0.0919189)"/>
</clipPath>
<clipPath id="clip1_3287_41266">
<rect width="42.5761" height="42.5761" fill="white" transform="translate(0.426453 0.0918579)"/>
</clipPath>
</defs>
</svg>
