<svg width="30" height="30" viewBox="0 0 30 30" fill="none" xmlns="http://www.w3.org/2000/svg">
<path d="M30 15C30 23.2844 23.2844 30 15 30C6.71562 30 0 23.2844 0 15C0 6.71562 6.71562 0 15 0C23.2844 0 30 6.71562 30 15Z" fill="#F1595A"/>
<path d="M29.5219 18.7709L18.8493 8.09863L9.0667 10.5442L6.62109 21.5496L15.0705 29.999C22.0212 29.9669 27.8549 25.208 29.5219 18.7709Z" fill="#CB4B4C"/>
<path d="M21.7026 13.6014H15.187V16.047H21.7026V18.4928L25.3711 14.8243L21.7026 11.1558V13.6014Z" fill="#70C6D1"/>
<path d="M9.0667 10.5442H15.9961L16.8114 9.32132L15.9961 8.09863H6.62109V21.5496H15.9961L16.8114 20.3269L15.9961 19.104H9.0667V10.5442Z" fill="white"/>
<path d="M15.9961 19.104H18.8493V21.5496H15.9961V19.104Z" fill="#E5E5E5"/>
<path d="M15.9961 8.09863H18.8493V10.5442H15.9961V8.09863Z" fill="#E5E5E5"/>
</svg>
