<svg width="292" height="142" viewBox="0 0 292 142" fill="none" xmlns="http://www.w3.org/2000/svg">
<g clip-path="url(#clip0_2789_108386)">
<path d="M140.858 268.877C139.35 267.791 137.643 267.013 135.833 266.589C134.024 266.165 132.149 266.102 130.315 266.405C128.482 266.707 126.726 267.369 125.149 268.352C123.572 269.335 122.204 270.62 121.125 272.133C120.391 273.158 119.462 274.029 118.391 274.695C117.32 275.361 116.128 275.809 114.884 276.014C113.64 276.22 112.367 276.178 111.139 275.891C109.911 275.605 108.751 275.079 107.726 274.344L105.255 272.573C104.23 271.839 103.36 270.911 102.694 269.841C102.029 268.77 101.58 267.58 101.375 266.336C101.17 265.093 101.212 263.821 101.499 262.594C101.785 261.366 102.311 260.208 103.046 259.184L200.042 123.887C200.819 122.802 201.803 121.881 202.936 121.176C204.069 120.472 205.33 119.997 206.647 119.78C207.963 119.563 209.31 119.607 210.609 119.91C211.909 120.213 213.136 120.77 214.22 121.547C215.305 122.324 216.226 123.308 216.931 124.441C217.635 125.574 218.11 126.835 218.327 128.152C218.544 129.468 218.5 130.815 218.197 132.114C217.894 133.414 217.338 134.641 216.56 135.725L190.965 171.449C190.505 172.09 190.176 172.815 189.997 173.582C189.817 174.35 189.791 175.146 189.92 175.924C190.048 176.702 190.328 177.447 190.745 178.116C191.161 178.786 191.706 179.367 192.347 179.826C192.988 180.286 193.713 180.614 194.48 180.794C195.248 180.973 196.044 180.999 196.822 180.871C197.6 180.743 198.345 180.462 199.014 180.046C199.684 179.629 200.265 179.085 200.724 178.444L296.868 44.3106C297.54 43.373 298.39 42.5769 299.369 41.9678C300.349 41.3586 301.439 40.9485 302.577 40.7607C303.715 40.5729 304.878 40.6112 306.002 40.8733C307.125 41.1355 308.185 41.6164 309.123 42.2885C310.06 42.9594 310.856 43.8084 311.464 44.7871C312.073 45.7657 312.483 46.8547 312.671 47.9919C312.859 49.1291 312.82 50.2922 312.558 51.4145C312.296 52.5369 311.815 53.5966 311.143 54.533L212.281 192.469C210.439 195.052 209.695 198.26 210.212 201.39C210.728 204.52 212.463 207.319 215.038 209.173C217.612 211.027 219.347 213.826 219.864 216.956C220.38 220.087 219.636 223.294 217.794 225.877L133.905 342.947C132.111 345.444 129.4 347.127 126.366 347.628C123.333 348.129 120.225 347.405 117.724 345.617C115.234 343.825 113.556 341.119 113.056 338.092C112.557 335.065 113.277 331.963 115.058 329.466L144.174 288.539C146.336 285.491 147.202 281.709 146.58 278.023C145.959 274.337 143.901 271.048 140.858 268.877Z" fill="#70C6D1"/>
<path d="M23.7393 69.9901L-176.451 270.17C-177.781 271.506 -178.527 273.315 -178.527 275.2C-178.527 277.085 -177.781 278.894 -176.451 280.23C-175.79 280.891 -175.005 281.416 -174.141 281.774C-173.277 282.132 -172.351 282.316 -171.416 282.316C-170.481 282.316 -169.555 282.132 -168.691 281.774C-167.827 281.416 -167.042 280.891 -166.381 280.23L33.7993 80.0501C34.4755 79.3741 35.0085 78.5687 35.3663 77.682C35.724 76.7954 35.8993 75.8456 35.8815 74.8897C35.8638 73.9337 35.6534 72.9912 35.263 72.1184C34.8726 71.2456 34.3101 70.4605 33.6093 69.8101C32.2621 68.5539 30.4796 67.8705 28.6379 67.9041C26.7963 67.9377 25.0398 68.6857 23.7393 69.9901Z" fill="#FDCC07"/>
<path d="M288.506 127.455L263.012 163.025C261.823 164.686 261.341 166.75 261.674 168.765C262.006 170.78 263.125 172.58 264.785 173.77C265.607 174.36 266.538 174.782 267.523 175.012C268.508 175.242 269.53 175.276 270.528 175.111C271.526 174.946 272.483 174.586 273.342 174.052C274.201 173.517 274.947 172.819 275.536 171.996L301.025 136.433C301.63 135.591 302.06 134.635 302.287 133.623C302.514 132.611 302.535 131.564 302.347 130.543C302.16 129.523 301.768 128.551 301.196 127.686C300.624 126.821 299.882 126.08 299.017 125.509C297.354 124.41 295.329 123.999 293.369 124.362C291.409 124.725 289.666 125.833 288.506 127.455Z" fill="#FDCC07"/>
</g>
<defs>
<clipPath id="clip0_2789_108386">
<rect width="292" height="141" fill="white" transform="translate(0 0.380005)"/>
</clipPath>
</defs>
</svg>
