<svg width="30" height="30" viewBox="0 0 30 30" fill="none" xmlns="http://www.w3.org/2000/svg">
<path d="M15 30C23.2843 30 30 23.2843 30 15C30 6.71573 23.2843 0 15 0C6.71573 0 0 6.71573 0 15C0 23.2843 6.71573 30 15 30Z" fill="#FDCC07"/>
<path d="M30 15C30 13.5304 29.7877 12.1107 29.3938 10.7686L22.7665 4.14127L22.249 4.93527L20.6091 3.29541L17.4186 4.14127L6.58289 24.6665L11.5065 29.5901C12.6275 29.8575 13.797 30 15 30C23.2843 30 30 23.2843 30 15Z" fill="#FDBA12"/>
<path d="M10.0631 5.07446L6.58289 8.5547V24.6675H22.3367V5.07446H10.0631Z" fill="white"/>
<path d="M22.3367 5.07349H14.9763V24.6665H22.3367V5.07349Z" fill="#E9EDF5"/>
<path d="M10.0632 8.55372L10.0639 5.07349L6.58362 8.55378L10.0632 8.55372Z" fill="#87C7FF"/>
<path d="M10.8964 15.1834C12.4869 15.1834 13.7762 13.894 13.7762 12.3035C13.7762 10.713 12.4869 9.42358 10.8964 9.42358C9.30585 9.42358 8.01648 10.713 8.01648 12.3035C8.01648 13.894 9.30585 15.1834 10.8964 15.1834Z" fill="#2864F0"/>
<path d="M10.8964 12.9618C11.5799 12.9618 12.134 12.4077 12.134 11.7242C12.134 11.0407 11.5799 10.4866 10.8964 10.4866C10.2129 10.4866 9.65875 11.0407 9.65875 11.7242C9.65875 12.4077 10.2129 12.9618 10.8964 12.9618Z" fill="#DBEEFF"/>
<path d="M10.8964 15.1833C11.662 15.1833 12.3563 14.8802 12.8674 14.388C12.5559 13.6042 11.7912 13.0498 10.8964 13.0498C10.0016 13.0498 9.2369 13.6042 8.92535 14.388C9.43647 14.8802 10.1308 15.1833 10.8964 15.1833Z" fill="#DBEEFF"/>
<path d="M8.19024 18.8606L20.7293 18.8606L20.7293 17.5519L8.19024 17.5519L8.19024 18.8606Z" fill="#A3D4FF"/>
<path d="M20.7293 17.5518H14.9763V18.8604H20.7293V17.5518Z" fill="#87C7FF"/>
<path d="M8.19024 21.2825L20.7293 21.2825L20.7293 19.9738L8.19024 19.9738L8.19024 21.2825Z" fill="#A3D4FF"/>
<path d="M20.7293 19.9736H14.9763V21.2823H20.7293V19.9736Z" fill="#87C7FF"/>
<path d="M22.7656 4.14149L12.3629 6.18555L14.209 15.5805L24.6116 13.5365L22.7656 4.14149Z" fill="#91C653"/>
<path d="M22.7665 4.14111L18.6732 4.94543V14.7035L24.6127 13.5364L22.7665 4.14111Z" fill="#719942"/>
<path d="M18.6704 10.0503C17.2157 10.0503 16.0322 8.86685 16.0322 7.41214H17.79C17.79 7.89759 18.185 8.29251 18.6704 8.29251C19.1559 8.29251 19.5508 7.89759 19.5508 7.41214V5.08228C19.5508 4.59683 19.1559 4.2019 18.6704 4.2019C18.185 4.2019 17.79 4.59683 17.79 5.08228H16.0322C16.0322 3.62757 17.2157 2.44409 18.6704 2.44409C20.1251 2.44409 21.3086 3.62757 21.3086 5.08228V7.41214C21.3086 8.86685 20.1251 10.0503 18.6704 10.0503Z" fill="#2864F0"/>
<path d="M18.6732 2.44434V4.20221C19.1574 4.20379 19.5508 4.59795 19.5508 5.08246V7.41232C19.5508 7.89678 19.1574 8.291 18.6732 8.29252V10.0504C20.1266 10.0489 21.3086 8.86604 21.3086 7.41232V5.08246C21.3086 3.62875 20.1266 2.44592 18.6732 2.44434Z" fill="#27488F"/>
</svg>
