<svg width="33" height="33" viewBox="0 0 33 33" fill="none" xmlns="http://www.w3.org/2000/svg">
<path d="M5.63965 13.514C5.63965 18.0338 9.31675 21.7109 13.8365 21.7109L14.7472 13.514L13.8365 5.31738C9.31675 5.31738 5.63965 8.99448 5.63965 13.514Z" fill="white"/>
<path d="M24.6551 26.2648L17.2957 18.9051L19.2275 16.9733L26.5872 24.3328L24.6551 26.2648Z" fill="#E5E5E5"/>
<path d="M13.8367 5.31738V21.7109C18.3562 21.7109 22.0333 18.0338 22.0333 13.514C22.0333 8.99448 18.3562 5.31738 13.8367 5.31738Z" fill="white"/>
<path d="M7.46118 13.5141C7.46118 17.0296 10.321 19.8894 13.8363 19.8894L14.7472 13.5141L13.8363 7.13904C10.321 7.13904 7.46118 9.99889 7.46118 13.5141Z" fill="#808080"/>
<path d="M13.8367 7.13904V19.8894C17.3519 19.8894 20.2117 17.0296 20.2117 13.5141C20.2117 9.99889 17.3519 7.13904 13.8367 7.13904Z" fill="#6D6D6E" fill-opacity="0.7"/>
</svg>
