<svg width="33" height="34" viewBox="0 0 33 34" fill="none" xmlns="http://www.w3.org/2000/svg">
<g clip-path="url(#clip0_2801_15870)">
<path d="M32.9612 17.0199C32.9612 26.0664 25.6277 33.3999 16.5812 33.3999C7.53463 33.3999 0.201172 26.0664 0.201172 17.0199C0.201172 7.97335 7.53463 0.639893 16.5812 0.639893C25.6277 0.639893 32.9612 7.97335 32.9612 17.0199Z" fill="#F1595A"/>
<path d="M8.21814 19.8384L21.1367 32.7572C26.6869 31.1533 31.0246 26.6937 32.4555 21.0726L19.7196 8.33691L8.21814 19.8384Z" fill="#CB4B4C"/>
<path d="M5.7998 14.0557C5.7998 18.5426 9.45016 22.193 13.9371 22.193L14.8411 14.0557L13.9371 5.9187C9.45016 5.9187 5.7998 9.56906 5.7998 14.0557Z" fill="#414952"/>
<path d="M24.6768 26.714L17.3708 19.4078L19.2886 17.49L26.5948 24.796L24.6768 26.714Z" fill="#23272B"/>
<path d="M13.937 5.9187V22.193C18.4237 22.193 22.074 18.5426 22.074 14.0557C22.074 9.56906 18.4237 5.9187 13.937 5.9187Z" fill="#414952"/>
<path d="M7.60815 14.0558C7.60815 17.5457 10.4472 20.3847 13.9369 20.3847L14.8411 14.0558L13.9369 7.72705C10.4472 7.72705 7.60815 10.5661 7.60815 14.0558Z" fill="white"/>
<path d="M13.937 7.72705V20.3847C17.4267 20.3847 20.2657 17.5457 20.2657 14.0558C20.2657 10.5661 17.4267 7.72705 13.937 7.72705Z" fill="#BFDCFF"/>
</g>
<defs>
<clipPath id="clip0_2801_15870">
<rect width="32.76" height="32.76" fill="white" transform="translate(0.201172 0.639893)"/>
</clipPath>
</defs>
</svg>
