<svg width="172" height="124" viewBox="0 0 172 124" fill="none" xmlns="http://www.w3.org/2000/svg">
<g filter="url(#filter0_d_2_4)">
<rect x="15" y="10" width="142" height="93.9304" rx="10" fill="#282828"/>
</g>
<path d="M82.6591 75.0912C82.658 75.7355 82.8482 76.3656 83.2055 76.9018C83.5628 77.4379 84.0712 77.856 84.6663 78.103C85.2613 78.35 85.9163 78.4149 86.5483 78.2895C87.1803 78.1641 87.7608 77.8539 88.2164 77.3983C88.672 76.9427 88.9822 76.3622 89.1076 75.7302C89.233 75.0982 89.1682 74.4433 88.9211 73.8482C88.6741 73.2531 88.256 72.7448 87.7198 72.3875C87.1837 72.0302 86.5536 71.84 85.9093 71.841C85.4809 71.8354 85.0557 71.9156 84.6589 72.077C84.262 72.2384 83.9015 72.4775 83.5985 72.7805C83.2956 73.0834 83.0564 73.4439 82.8951 73.8408C82.7337 74.2377 82.6535 74.6628 82.6591 75.0912Z" fill="white"/>
<path d="M125.442 73.9185H92.3259C92.4127 74.3029 92.4512 74.6966 92.4405 75.0905C92.4377 76.193 92.1333 77.2737 91.5602 78.2156H125.442C126.786 78.2156 127.838 77.45 127.838 76.1322C127.838 74.8144 126.786 73.9185 125.442 73.9185Z" fill="#F15B5B"/>
<path d="M126.021 62.8141C125.815 62.2055 125.377 61.7028 124.803 61.416C124.228 61.1291 123.563 61.0812 122.953 61.2828L91.3678 71.5229C92.0545 72.576 92.4167 73.8076 92.4095 75.0648C92.4095 75.4503 92.3158 75.9294 92.3158 76.3097L124.474 65.8924C124.781 65.7965 125.065 65.6399 125.31 65.4318C125.555 65.2238 125.756 64.9685 125.9 64.6813C126.045 64.3941 126.13 64.0808 126.15 63.76C126.171 63.4392 126.127 63.1175 126.021 62.8141V62.8141Z" fill="#FDCD0D"/>
<path d="M120.275 51.0426C119.902 50.5277 119.342 50.1791 118.716 50.0711C118.089 49.9631 117.445 50.1042 116.921 50.4644L90.0286 69.9916C90.6971 70.5128 91.2549 71.1624 91.669 71.9021C92.0831 72.6418 92.3453 73.4568 92.4402 74.2992L119.817 54.3918C120.073 54.2064 120.288 53.9711 120.451 53.7001C120.613 53.4292 120.719 53.1281 120.762 52.8151C120.804 52.5021 120.783 52.1837 120.7 51.8791C120.616 51.5744 120.472 51.2899 120.275 51.0426V51.0426Z" fill="#71C7D1"/>
<path d="M111.191 41.5628C110.936 41.3737 110.645 41.2382 110.336 41.1648C110.027 41.0913 109.706 41.0813 109.393 41.1353C109.08 41.1893 108.781 41.3063 108.514 41.4792C108.248 41.6521 108.019 41.8772 107.842 42.141L88.3044 68.9394C89.8689 69.6142 91.1299 70.8417 91.8463 72.3876L111.754 44.9172C111.944 44.6625 112.08 44.3719 112.155 44.063C112.23 43.7542 112.241 43.4333 112.189 43.1199C112.136 42.8065 112.021 42.5069 111.849 42.2393C111.678 41.9717 111.454 41.7416 111.191 41.5628V41.5628Z" fill="#90C653"/>
<path d="M98.8314 35.151C98.4309 35.0233 98.0092 34.9759 97.5904 35.0115C97.1716 35.0472 96.7639 35.1652 96.3908 35.3587C96.0177 35.5523 95.6865 35.8176 95.4161 36.1395C95.1458 36.4614 94.9417 36.8335 94.8155 37.2344L84.5701 68.6529C85.0119 68.5753 85.4605 68.5439 85.9087 68.5592C86.8099 68.5388 87.7048 68.7146 88.5313 69.0743C89.3578 69.4341 90.0963 69.9692 90.6955 70.6426L100.941 39.1512C101.066 38.7501 101.11 38.3282 101.072 37.9099C101.033 37.4915 100.912 37.0849 100.716 36.7133C100.52 36.3416 100.253 36.0123 99.9296 35.7443C99.6061 35.4762 99.2329 35.2746 98.8314 35.151V35.151Z" fill="white"/>
<path d="M79.4188 75.0911C79.4419 73.9232 79.7361 72.7766 80.2782 71.7419H47.2554C46.3994 71.7512 45.5807 72.0937 44.973 72.6965C44.3652 73.2994 44.0162 74.1154 44 74.9713C43.998 75.3975 44.0803 75.82 44.2423 76.2143C44.4044 76.6086 44.6428 76.9669 44.944 77.2686C45.2452 77.5702 45.6031 77.8093 45.9972 77.9719C46.3912 78.1346 46.8135 78.2176 47.2398 78.2162H80.2626C79.7023 77.2707 79.4106 76.1901 79.4188 75.0911V75.0911Z" fill="white"/>
<defs>
<filter id="filter0_d_2_4" x="0" y="0" width="172" height="123.93" filterUnits="userSpaceOnUse" color-interpolation-filters="sRGB">
<feFlood flood-opacity="0" result="BackgroundImageFix"/>
<feColorMatrix in="SourceAlpha" type="matrix" values="0 0 0 0 0 0 0 0 0 0 0 0 0 0 0 0 0 0 127 0" result="hardAlpha"/>
<feOffset dy="5"/>
<feGaussianBlur stdDeviation="7.5"/>
<feColorMatrix type="matrix" values="0 0 0 0 0.156863 0 0 0 0 0.156863 0 0 0 0 0.156863 0 0 0 0.2 0"/>
<feBlend mode="normal" in2="BackgroundImageFix" result="effect1_dropShadow_2_4"/>
<feBlend mode="normal" in="SourceGraphic" in2="effect1_dropShadow_2_4" result="shape"/>
</filter>
</defs>
</svg>
