<svg width="166" height="97" viewBox="0 0 166 97" fill="none" xmlns="http://www.w3.org/2000/svg">
<rect width="166" height="97" fill="#282828"/>
<path d="M79.6591 67.0912C79.658 67.7355 79.8482 68.3656 80.2055 68.9018C80.5628 69.4379 81.0712 69.856 81.6663 70.103C82.2613 70.35 82.9163 70.4149 83.5483 70.2895C84.1803 70.1641 84.7608 69.8539 85.2164 69.3983C85.672 68.9427 85.9821 68.3622 86.1076 67.7302C86.233 67.0982 86.1681 66.4433 85.9211 65.8482C85.6741 65.2531 85.256 64.7448 84.7198 64.3875C84.1837 64.0302 83.5536 63.84 82.9093 63.841C82.4809 63.8354 82.0557 63.9156 81.6589 64.077C81.262 64.2384 80.9015 64.4776 80.5985 64.7805C80.2956 65.0834 80.0564 65.4439 79.8951 65.8408C79.7337 66.2377 79.6535 66.6628 79.6591 67.0912Z" fill="white"/>
<path d="M122.442 65.9185H89.3259C89.4127 66.3029 89.4512 66.6966 89.4405 67.0905C89.4377 68.193 89.1333 69.2737 88.5602 70.2156H122.442C123.786 70.2156 124.838 69.45 124.838 68.1322C124.838 66.8144 123.786 65.9185 122.442 65.9185Z" fill="#F15B5B"/>
<path d="M123.021 54.8141C122.815 54.2055 122.377 53.7028 121.803 53.4159C121.228 53.129 120.563 53.0812 119.953 53.2828L88.3678 63.5229C89.0545 64.576 89.4167 65.8076 89.4095 67.0648C89.4095 67.4502 89.3158 67.9294 89.3158 68.3097L121.474 57.8924C121.781 57.7965 122.065 57.6399 122.31 57.4318C122.555 57.2238 122.756 56.9685 122.9 56.6813C123.045 56.3941 123.13 56.0807 123.15 55.76C123.171 55.4392 123.127 55.1175 123.021 54.8141V54.8141Z" fill="#FDCD0D"/>
<path d="M117.275 43.0426C116.902 42.5277 116.342 42.1791 115.716 42.0711C115.089 41.9631 114.445 42.1042 113.921 42.4644L87.0285 61.9916C87.6971 62.5129 88.2549 63.1624 88.669 63.9021C89.0831 64.6418 89.3453 65.4568 89.4402 66.2992L116.817 46.3918C117.073 46.2064 117.288 45.9711 117.451 45.7001C117.613 45.4292 117.719 45.1281 117.762 44.8151C117.804 44.5021 117.783 44.1837 117.7 43.8791C117.616 43.5744 117.472 43.2899 117.275 43.0426V43.0426Z" fill="#71C7D1"/>
<path d="M108.191 33.5629C107.936 33.3737 107.645 33.2383 107.336 33.1648C107.027 33.0913 106.706 33.0813 106.393 33.1353C106.08 33.1894 105.781 33.3064 105.514 33.4792C105.248 33.6521 105.019 33.8772 104.842 34.141L85.3044 60.9395C86.8689 61.6142 88.1299 62.8418 88.8463 64.3876L108.754 36.9172C108.944 36.6625 109.08 36.3719 109.155 36.0631C109.23 35.7542 109.241 35.4334 109.189 35.1199C109.136 34.8065 109.021 34.507 108.849 34.2394C108.678 33.9718 108.454 33.7416 108.191 33.5629V33.5629Z" fill="#90C653"/>
<path d="M95.8314 27.151C95.4309 27.0233 95.0092 26.9759 94.5904 27.0115C94.1716 27.0472 93.7639 27.1652 93.3908 27.3587C93.0177 27.5523 92.6865 27.8176 92.4161 28.1395C92.1458 28.4614 91.9417 28.8335 91.8155 29.2344L81.5701 60.6529C82.0119 60.5753 82.4605 60.5439 82.9088 60.5592C83.8099 60.5388 84.7048 60.7146 85.5313 61.0743C86.3578 61.4341 87.0963 61.9692 87.6955 62.6426L97.9409 31.1512C98.0657 30.7501 98.1101 30.3282 98.0716 29.9099C98.0331 29.4915 97.9124 29.0849 97.7164 28.7133C97.5205 28.3416 97.2531 28.0123 96.9296 27.7443C96.6061 27.4762 96.2329 27.2746 95.8314 27.151V27.151Z" fill="white"/>
<path d="M76.4188 67.0911C76.4419 65.9232 76.7361 64.7766 77.2782 63.7419H44.2554C43.3994 63.7512 42.5807 64.0937 41.973 64.6966C41.3652 65.2994 41.0162 66.1154 41 66.9713C40.998 67.3975 41.0803 67.82 41.2423 68.2143C41.4044 68.6086 41.6428 68.9669 41.944 69.2686C42.2452 69.5702 42.6031 69.8093 42.9972 69.972C43.3912 70.1346 43.8135 70.2176 44.2398 70.2163H77.2626C76.7023 69.2707 76.4106 68.1902 76.4188 67.0911V67.0911Z" fill="white"/>
</svg>
