<svg width="156" height="260" viewBox="0 0 156 260" fill="none" xmlns="http://www.w3.org/2000/svg">
<g clip-path="url(#clip0_2781_45994)">
<path d="M219.182 -1.92432L111.705 148.045C110.584 149.607 108.89 150.66 106.993 150.973C105.097 151.286 103.154 150.833 101.591 149.714C100.029 148.594 98.9762 146.899 98.6632 145.003C98.3503 143.106 98.8032 141.163 99.9225 139.601L160.624 54.9078C160.91 54.5104 161.114 54.0604 161.226 53.5837C161.337 53.107 161.354 52.6129 161.274 52.1299C161.194 51.6468 161.02 51.1842 160.761 50.7686C160.502 50.353 160.164 49.9927 159.766 49.7081C158.964 49.1337 157.967 48.9012 156.993 49.0618C156.02 49.2223 155.151 49.7629 154.576 50.5645L140.852 69.7245C139.645 71.3943 137.827 72.5194 135.794 72.8548C133.761 73.1903 131.678 72.7089 129.999 71.5154C128.329 70.3084 127.204 68.4904 126.869 66.4576C126.533 64.4247 127.015 62.3417 128.208 60.6622L245.226 -102.679C245.688 -103.32 246.02 -104.047 246.2 -104.817C246.381 -105.587 246.408 -106.385 246.279 -107.165C246.15 -107.945 245.869 -108.693 245.45 -109.364C245.032 -110.035 244.484 -110.616 243.84 -111.075C243.198 -111.539 242.471 -111.872 241.7 -112.053C240.929 -112.235 240.13 -112.262 239.348 -112.133C238.567 -112.004 237.818 -111.721 237.147 -111.302C236.475 -110.882 235.893 -110.334 235.434 -109.688L213.948 -79.71C212.962 -78.3417 211.475 -77.4194 209.81 -77.1448C208.146 -76.8702 206.441 -77.2657 205.068 -78.2447C203.7 -79.2307 202.778 -80.7183 202.503 -82.3823C202.228 -84.0463 202.624 -85.7514 203.603 -87.1247L265.548 -173.553C266.007 -174.199 266.589 -174.747 267.261 -175.167C267.932 -175.586 268.681 -175.869 269.462 -175.998C270.244 -176.127 271.043 -176.1 271.814 -175.918C272.585 -175.737 273.312 -175.404 273.954 -174.94C274.6 -174.481 275.148 -173.899 275.568 -173.228C275.988 -172.556 276.27 -171.807 276.399 -171.026C276.528 -170.244 276.501 -169.445 276.319 -168.674C276.138 -167.903 275.806 -167.176 275.341 -166.534L249.861 -130.91C249.413 -130.286 249.092 -129.58 248.917 -128.832C248.742 -128.084 248.716 -127.309 248.841 -126.551C248.967 -125.793 249.24 -125.067 249.646 -124.415C250.052 -123.763 250.583 -123.197 251.208 -122.751C252.469 -121.848 254.036 -121.482 255.566 -121.735C257.096 -121.987 258.464 -122.837 259.367 -124.097L305.806 -188.902C306.494 -189.871 307.367 -190.693 308.375 -191.323C309.383 -191.952 310.505 -192.376 311.677 -192.569C312.85 -192.763 314.049 -192.722 315.205 -192.45C316.362 -192.178 317.453 -191.679 318.416 -190.983C319.384 -190.295 320.207 -189.422 320.836 -188.414C321.466 -187.406 321.889 -186.284 322.083 -185.112C322.276 -183.939 322.235 -182.74 321.963 -181.584C321.691 -180.427 321.192 -179.336 320.496 -178.373L170.844 30.3055C170.196 31.2225 169.935 32.3579 170.118 33.466C170.301 34.574 170.913 35.5654 171.821 36.2255C172.738 36.8738 173.874 37.1349 174.982 36.9521C176.09 36.7692 177.081 36.1572 177.741 35.2486L218.547 -21.6845C219.474 -22.9732 220.874 -23.8419 222.44 -24.1004C224.006 -24.3588 225.611 -23.986 226.903 -23.0635C228.195 -22.1364 229.066 -20.7345 229.325 -19.1657C229.584 -17.5969 229.21 -15.9895 228.284 -14.6966L219.182 -1.92432Z" fill="#91C653"/>
</g>
<defs>
<clipPath id="clip0_2781_45994">
<rect width="156" height="267" fill="white" transform="translate(0.135742)"/>
</clipPath>
</defs>
</svg>
