<svg width="157" height="282" viewBox="0 0 157 282" fill="none" xmlns="http://www.w3.org/2000/svg">
<path d="M-65.0058 272.497C-66.5138 271.411 -68.2215 270.633 -70.0308 270.209C-71.8401 269.785 -73.7154 269.722 -75.549 270.025C-77.3825 270.327 -79.1383 270.989 -80.7154 271.972C-82.2925 272.955 -83.6599 274.24 -84.739 275.753C-85.4734 276.778 -86.4025 277.649 -87.4735 278.315C-88.5444 278.981 -89.736 279.429 -90.9803 279.634C-92.2246 279.84 -93.4971 279.798 -94.7252 279.511C-95.9534 279.225 -97.113 278.699 -98.1378 277.964L-100.609 276.193C-101.634 275.459 -102.504 274.531 -103.17 273.461C-103.836 272.39 -104.284 271.2 -104.489 269.956C-104.694 268.713 -104.652 267.441 -104.366 266.214C-104.079 264.986 -103.553 263.828 -102.818 262.804L-5.82194 127.507C-5.0447 126.422 -4.06142 125.501 -2.92821 124.796C-1.795 124.092 -0.534049 123.617 0.782566 123.4C2.09919 123.183 3.44573 123.227 4.74525 123.53C6.04477 123.833 7.2718 124.39 8.35632 125.167C9.44102 125.944 10.362 126.928 11.0666 128.061C11.7712 129.194 12.2458 130.455 12.463 131.772C12.6803 133.088 12.636 134.435 12.3328 135.734C12.0296 137.034 11.4734 138.261 10.6959 139.345L-14.8994 175.069C-15.3591 175.71 -15.6881 176.435 -15.8674 177.202C-16.0467 177.97 -16.0729 178.766 -15.9446 179.544C-15.8162 180.322 -15.5358 181.067 -15.1192 181.736C-14.7027 182.406 -14.1583 182.987 -13.5172 183.446C-12.8766 183.906 -12.1516 184.234 -11.3838 184.414C-10.6159 184.593 -9.82032 184.619 -9.04235 184.491C-8.26438 184.363 -7.5193 184.082 -6.84979 183.666C-6.18029 183.249 -5.59946 182.705 -5.14049 182.064L91.0042 47.9306C91.6759 46.993 92.5257 46.1969 93.5052 45.5878C94.4846 44.9786 95.5745 44.5685 96.7125 44.3807C97.8505 44.1929 99.0143 44.2312 100.138 44.4933C101.261 44.7555 102.321 45.2364 103.259 45.9085C104.196 46.5794 104.992 47.4284 105.6 48.4071C106.209 49.3857 106.619 50.4747 106.807 51.6119C106.994 52.7491 106.956 53.9122 106.694 55.0345C106.432 56.1569 105.951 57.2166 105.279 58.153L6.41718 196.089C4.57511 198.672 3.83101 201.88 4.34755 205.01C4.86409 208.14 6.59923 210.939 9.17355 212.793C11.7479 214.647 13.4831 217.446 13.9996 220.576C14.5162 223.707 13.772 226.914 11.9299 229.497L-71.9592 346.567C-73.7532 349.064 -76.4643 350.747 -79.4978 351.248C-82.5313 351.749 -85.6394 351.025 -88.1405 349.237C-90.6303 347.445 -92.3086 344.739 -92.8081 341.712C-93.3076 338.685 -92.5876 335.583 -90.8056 333.086L-61.6903 292.159C-59.5279 289.11 -58.6626 285.329 -59.2841 281.643C-59.9056 277.957 -61.9632 274.668 -65.0058 272.497Z" fill="#70C6D1"/>
<path d="M82.6427 131.075L57.1486 166.645C55.9593 168.306 55.478 170.37 55.8105 172.385C56.143 174.4 57.262 176.2 58.9216 177.39C59.7439 177.98 60.6743 178.402 61.6597 178.632C62.6452 178.862 63.6663 178.896 64.6648 178.731C65.6632 178.566 66.6194 178.206 67.4787 177.672C68.3379 177.137 69.0835 176.439 69.6727 175.616L95.1614 140.053C95.7671 139.211 96.1965 138.255 96.4238 137.243C96.6511 136.231 96.6716 135.184 96.4841 134.163C96.2966 133.143 95.9049 132.171 95.3326 131.306C94.7603 130.441 94.0191 129.7 93.1535 129.129C91.4902 128.03 89.4657 127.619 87.5055 127.982C85.5454 128.345 83.8023 129.453 82.6427 131.075Z" fill="#FDCC07"/>
</svg>
