<svg xmlns="http://www.w3.org/2000/svg" width="19.058" height="16.58" viewBox="0 0 19.058 16.58"><defs><style>.a{fill:#fff;fill-rule:evenodd;}</style></defs><path class="a" d="M499.74,497.917c.194-1.392,10.361-8.993,7.966-7.725l-6.459,3.74c-3.821,2.322-3.544,1.952-2.735,4.715a9.859,9.859,0,0,0,.644,2.047c.449.539.578-2.738.583-2.777m-3.578-1.5c.366.144.286.1.41.519.274.935.561,1.8.84,2.724.946,3.145.83,3.163,2.177,2.067,2.222-1.808,2.016-1.986,3.292-1.085l3.679,2.683c1.046.79,1.1-.81,1.281-1.667l2.948-14.061c.065-.274.027-.442-.075-.537-.213-.2-.7-.072-1.1.088l-15.675,6.045C489.244,494.957,493.16,495.231,496.162,496.414Z" transform="translate(-491.762 -486.956)"/></svg>