<svg xmlns="http://www.w3.org/2000/svg" width="21.078" height="17.13" viewBox="0 0 21.078 17.13"><defs><style>.a{fill:#f1f2f2;}</style></defs><path class="a" d="M382.957,57.649a8.642,8.642,0,0,1-2.483.681,4.348,4.348,0,0,0,1.9-2.392,8.7,8.7,0,0,1-2.747,1.049,4.329,4.329,0,0,0-7.37,3.945,12.277,12.277,0,0,1-8.913-4.52,4.331,4.331,0,0,0,1.337,5.775,4.3,4.3,0,0,1-1.959-.542V61.7a4.327,4.327,0,0,0,3.469,4.239,4.292,4.292,0,0,1-1.138.153,4.344,4.344,0,0,1-.814-.077,4.331,4.331,0,0,0,4.041,3,8.754,8.754,0,0,1-6.4,1.791,12.3,12.3,0,0,0,18.934-10.362c0-.187,0-.373-.013-.559a8.773,8.773,0,0,0,2.158-2.238" transform="translate(-361.879 -55.621)"/></svg>