<svg width="7" height="5" viewBox="0 0 7 5" fill="none" xmlns="http://www.w3.org/2000/svg">
<path d="M3.5 4.02002C3.45403 4.02007 3.4085 4.01069 3.36604 3.99241C3.32357 3.97412 3.285 3.9473 3.25255 3.91347L0.102478 0.640747C0.0535434 0.589892 0.0202203 0.525105 0.00672134 0.454577C-0.00677759 0.384048 0.000153697 0.310945 0.0266388 0.244509C0.0531239 0.178073 0.0979736 0.121286 0.155518 0.081328C0.213063 0.04137 0.280719 0.0200349 0.349933 0.0200195H6.65007C6.71928 0.0200349 6.78694 0.04137 6.84448 0.081328C6.90203 0.121286 6.94688 0.178073 6.97336 0.244509C6.99985 0.310945 7.00678 0.384048 6.99328 0.454577C6.97978 0.525105 6.94646 0.589892 6.89752 0.640747L3.74746 3.91347C3.715 3.9473 3.67643 3.97412 3.63396 3.99241C3.5915 4.01069 3.54597 4.02007 3.5 4.02002Z" fill="white"/>
</svg>
