<svg width="7" height="4" viewBox="0 0 7 4" fill="none" xmlns="http://www.w3.org/2000/svg">
<path d="M3.5 4C3.45403 4.00005 3.4085 3.99067 3.36604 3.97239C3.32357 3.9541 3.285 3.92728 3.25255 3.89345L0.102478 0.620727C0.0535434 0.569872 0.0202203 0.505085 0.00672134 0.434557C-0.00677759 0.364029 0.000153697 0.290926 0.0266388 0.224489C0.0531239 0.158053 0.0979736 0.101266 0.155518 0.0613084C0.213063 0.0213505 0.280719 1.53543e-05 0.349933 0L6.65007 0C6.71928 1.53543e-05 6.78694 0.0213505 6.84448 0.0613084C6.90203 0.101266 6.94688 0.158053 6.97336 0.224489C6.99985 0.290926 7.00678 0.364029 6.99328 0.434557C6.97978 0.505085 6.94646 0.569872 6.89752 0.620727L3.74746 3.89345C3.715 3.92728 3.67643 3.9541 3.63396 3.97239C3.5915 3.99067 3.54597 4.00005 3.5 4Z" fill="#141414"/>
</svg>
